<?xml version="1.0" encoding="UTF-8" standalone="no"?>
<!-- Created with Inkscape (http://www.inkscape.org/) -->

<svg
   width="1923.7107mm"
   height="963.76428mm"
   viewBox="0 0 1923.7107 963.76429"
   version="1.1"
   id="svg5"
   inkscape:export-filename="chapters.svg"
   inkscape:export-xdpi="96"
   inkscape:export-ydpi="96"
   inkscape:version="1.2.2 (732a01da63, 2022-12-09)"
   sodipodi:docname="chapters.svg"
   xmlns:inkscape="http://www.inkscape.org/namespaces/inkscape"
   xmlns:sodipodi="http://sodipodi.sourceforge.net/DTD/sodipodi-0.dtd"
   xmlns:xlink="http://www.w3.org/1999/xlink"
   xmlns="http://www.w3.org/2000/svg"
   xmlns:svg="http://www.w3.org/2000/svg">
  <sodipodi:namedview
     id="namedview7"
     pagecolor="#ffffff"
     bordercolor="#000000"
     borderopacity="0.25"
     inkscape:showpageshadow="2"
     inkscape:pageopacity="0.0"
     inkscape:pagecheckerboard="0"
     inkscape:deskcolor="#d1d1d1"
     inkscape:document-units="mm"
     showgrid="false"
     inkscape:zoom="0.25"
     inkscape:cx="3362"
     inkscape:cy="1120"
     inkscape:window-width="1920"
     inkscape:window-height="1009"
     inkscape:window-x="-8"
     inkscape:window-y="-8"
     inkscape:window-maximized="1"
     inkscape:current-layer="g37341"
     showguides="true" />
  <defs
     id="defs2" />
  <g
     inkscape:label="Layer 1"
     inkscape:groupmode="layer"
     id="layer1"
     transform="translate(-38.269704,-1975.5681)">
    <rect
       style="fill:#aaccff;stroke:#000000;stroke-width:1.39354"
       id="rect1580-4"
       width="1926.5439"
       height="962.3783"
       x="28.386435"
       y="928.51093"
       ry="2.0696306"
       inkscape:export-filename="chapters.svg"
       inkscape:export-xdpi="96"
       inkscape:export-ydpi="96" />
    <rect
       style="fill:#80b3ff;stroke:none;stroke-width:5.01711"
       id="rect33996-6"
       width="51.13673"
       height="76.682518"
       x="-1434.4978"
       y="1843.2894"
       ry="24.909613"
       transform="matrix(0.81083178,-0.58527926,0.70556366,0.70864654,0,0)"
       inkscape:export-filename=".\chapters.svg"
       inkscape:export-xdpi="96"
       inkscape:export-ydpi="96" />
    <rect
       style="fill:#80b3ff;stroke:none;stroke-width:5.02502"
       id="rect33996-7"
       width="50.672939"
       height="77.6287"
       x="-195.0656"
       y="2376.675"
       ry="25.21697"
       transform="matrix(0.99817414,-0.06040192,0.23488023,0.97202432,0,0)" />
    <rect
       style="fill:#80b3ff;stroke:none;stroke-width:5.04107"
       id="rect33996-1"
       width="51.221077"
       height="77.289093"
       x="1484.5454"
       y="1655.452"
       ry="25.106651"
       transform="matrix(0.77252919,0.63497925,-0.46062899,0.88759277,0,0)" />
    <rect
       style="fill:#80b3ff;stroke:none;stroke-width:5.04136"
       id="rect33996-3"
       width="51.257645"
       height="77.242538"
       x="1539.6531"
       y="1714.8236"
       ry="25.09153"
       transform="matrix(0.75538336,0.65528313,-0.48359485,0.87529196,0,0)" />
    <rect
       style="fill:#80b3ff;stroke:none;stroke-width:5.01735"
       id="rect33996-9"
       width="51.430607"
       height="76.251389"
       x="-2200.3982"
       y="2120.3728"
       ry="24.76956"
       transform="matrix(0.66890672,-0.74334635,0.8396458,0.54313435,0,0)" />
    <rect
       style="fill:#80b3ff;stroke:none;stroke-width:5.01841"
       id="rect33996-10"
       width="51.605911"
       height="76.02475"
       x="-2414.7678"
       y="1967.4965"
       ry="24.695936"
       transform="matrix(0.56908679,-0.82227746,0.90296254,0.42971927,0,0)" />
    <rect
       style="fill:#80b3ff;stroke:none;stroke-width:5.03301"
       id="rect33996-10-7"
       width="52.065723"
       height="75.792465"
       x="-2973.7988"
       y="422.65833"
       ry="24.620483"
       transform="matrix(-0.07516804,-0.99717088,0.96407536,-0.26562887,0,0)" />
    <rect
       style="fill:#80b3ff;stroke:none;stroke-width:5.02634"
       id="rect33996-63"
       width="52.025635"
       height="75.649918"
       x="-2903.1655"
       y="1042.1338"
       ry="24.574177"
       transform="matrix(0.18181247,-0.98333322,0.99999467,0.00326365,0,0)" />
    <rect
       style="fill:#80b3ff;stroke:none;stroke-width:5.0283"
       id="rect33996-79"
       width="50.676201"
       height="77.724686"
       x="-561.43799"
       y="-2623.1841"
       ry="25.24815"
       transform="matrix(-0.99696391,-0.07786498,-0.10565073,-0.9944033,0,0)" />
    <rect
       style="fill:#80b3ff;stroke:none;stroke-width:5.01759"
       id="rect33996-5"
       width="51.023056"
       height="76.868034"
       x="1023.3347"
       y="-2626.4705"
       ry="24.969873"
       transform="matrix(-0.86003478,0.51023542,-0.64011277,-0.76828096,0,0)" />
    <rect
       style="fill:#80b3ff;stroke:none;stroke-width:5.03877"
       id="rect33996-75"
       width="51.020054"
       height="77.523048"
       x="1336.8438"
       y="1675.0703"
       ry="25.182646"
       transform="matrix(0.86129989,0.50809694,-0.3221755,0.94667996,0,0)" />
    <rect
       style="fill:#80b3ff;stroke:none;stroke-width:5.04222"
       id="rect33996-75-7"
       width="51.468399"
       height="76.952698"
       x="1892.8129"
       y="906.23431"
       ry="24.997377"
       transform="matrix(0.64860586,0.76112446,-0.60807707,0.793878,0,0)" />
    <rect
       style="fill:#80b3ff;stroke:none;stroke-width:5.03252"
       id="rect33996-36"
       width="52.069439"
       height="75.77198"
       x="-2334.4055"
       y="616.49591"
       ry="24.613834"
       transform="matrix(-0.05578058,-0.99844305,0.96930457,-0.24586307,0,0)" />
    <rect
       style="fill:#80b3ff;stroke:none;stroke-width:5.01881"
       id="rect33996-36-4"
       width="51.650349"
       height="75.971352"
       x="-1660.0465"
       y="1889.2755"
       ry="24.678598"
       transform="matrix(0.54105401,-0.84098785,0.91731724,0.39815711,0,0)" />
    <rect
       style="fill:#80b3ff;stroke:none;stroke-width:5.01942"
       id="rect33996-77"
       width="50.839104"
       height="77.202148"
       x="-288.83395"
       y="2623.8718"
       ry="25.078405"
       transform="matrix(0.93480557,-0.35515988,0.50270632,0.86445726,0,0)" />
    <rect
       style="fill:#80b3ff;stroke:none;stroke-width:5.03151"
       id="rect33996-4"
       width="50.725426"
       height="77.748466"
       x="1161.4348"
       y="2217.5342"
       ry="25.255875"
       transform="matrix(0.9785353,0.20607927,-0.01703207,0.99985494,0,0)" />
    <rect
       style="fill:#80b3ff;stroke:none;stroke-width:5.04058"
       id="rect33996-16"
       width="51.167221"
       height="77.355568"
       x="2116.2671"
       y="1411.2588"
       ry="25.128242"
       transform="matrix(0.79717721,0.60374539,-0.42577765,0.90482783,0,0)" />
    <rect
       style="fill:#80b3ff;stroke:none;stroke-width:5.03747"
       id="rect33996-71"
       width="51.975395"
       height="76.058769"
       x="2595.3499"
       y="-916.14496"
       ry="24.706991"
       transform="matrix(0.25979689,0.96566328,-0.89370713,0.44865082,0,0)" />
    <rect
       style="fill:#80b3ff;stroke:none;stroke-width:5.03692"
       id="rect33996-94"
       width="50.913261"
       height="77.628487"
       x="1895.6863"
       y="1407.9331"
       ry="25.216902"
       transform="matrix(0.90531148,0.42474831,-0.23508898,0.97197385,0,0)" />
    <rect
       style="fill:#80b3ff;stroke:none;stroke-width:5.02119"
       id="rect33996-94-5"
       width="50.751369"
       height="77.39003"
       x="449.21191"
       y="2946.1929"
       ry="25.139439"
       transform="matrix(0.96870264,-0.24822407,0.40656752,0.91362074,0,0)"
       inkscape:transform-center-x="-7.4735328"
       inkscape:transform-center-y="9.7123748" />
    <rect
       style="fill:#80b3ff;stroke:none;stroke-width:5.03735"
       id="rect33996-8"
       width="51.979729"
       height="76.048553"
       x="-3067.6384"
       y="476.69043"
       ry="24.703676"
       transform="matrix(-0.2540004,-0.96720411,0.8964915,-0.44306094,0,0)" />
    <rect
       style="fill:#80b3ff;stroke:none;stroke-width:5.03786"
       id="rect33996-84"
       width="51.961021"
       height="76.091812"
       x="-3068.8071"
       y="512.62476"
       ry="24.717724"
       transform="matrix(-0.27814806,-0.96053821,0.8846396,-0.46627542,0,0)" />
    <rect
       style="fill:#80b3ff;stroke:none;stroke-width:5.02345"
       id="rect33996-95"
       width="51.94128"
       height="75.685463"
       x="-2503.3669"
       y="2168.1323"
       ry="24.58573"
       transform="matrix(0.30156229,-0.95344648,0.99113729,0.13284152,0,0)" />
    <rect
       style="fill:#80b3ff;stroke:none;stroke-width:5.01711"
       id="rect33996-31"
       width="51.13673"
       height="76.682518"
       x="-667.72705"
       y="2895.6035"
       ry="24.909613"
       transform="matrix(0.81083178,-0.58527926,0.70556366,0.70864654,0,0)" />
    <rect
       style="fill:#80b3ff;stroke:none;stroke-width:5.01884"
       id="rect33996-49"
       width="51.653931"
       height="75.967133"
       x="-1903.0116"
       y="2747.7903"
       ry="24.677223"
       transform="matrix(0.53873086,-0.84247793,0.91844594,0.39554652,0,0)" />
    <rect
       style="fill:#80b3ff;stroke:none;stroke-width:5.01711"
       id="rect33996-72"
       width="51.13673"
       height="76.682518"
       x="-662.71216"
       y="2991.8391"
       ry="24.909613"
       transform="matrix(0.81083178,-0.58527926,0.70556366,0.70864654,0,0)" />
    <rect
       style="fill:#80b3ff;stroke:none;stroke-width:5.01752"
       id="rect33996-798"
       width="51.466862"
       height="76.202583"
       x="-1028.5128"
       y="2572.124"
       ry="24.753708"
       transform="matrix(0.64944407,-0.76040937,0.85363055,0.52087895,0,0)" />
    <rect
       style="fill:#80b3ff;stroke:none;stroke-width:5.01711"
       id="rect33996-0"
       width="51.13673"
       height="76.682518"
       x="-372.60095"
       y="2967.4421"
       ry="24.909613"
       transform="matrix(0.81083178,-0.58527926,0.70556366,0.70864654,0,0)" />
    <rect
       style="fill:#80b3ff;stroke:none;stroke-width:5.01711"
       id="rect33996-05"
       width="51.13673"
       height="76.682518"
       x="-373.80313"
       y="3070.8228"
       ry="24.909613"
       transform="matrix(0.81083178,-0.58527926,0.70556366,0.70864654,0,0)" />
    <rect
       style="fill:#80b3ff;stroke:none;stroke-width:5.01711"
       id="rect33996"
       width="51.13673"
       height="76.682518"
       x="-1437.9939"
       y="1748.308"
       ry="24.909613"
       transform="matrix(0.81083178,-0.58527926,0.70556366,0.70864654,0,0)" />
    <a
       id="a113"
       xlink:href="http://localhost:5173/opening"
       onclick="alert('Circle Clicked!');"
       transform="matrix(1.0000035,0,0,1.0277526,-2.1200802,-16.293452)">
      <g
         id="chpt1"
         inkscape:label="chpt1">
        <ellipse
           style="fill:#0044aa;stroke:none;stroke-width:21.4606"
           id="path34420"
           cx="314.32501"
           cy="2196.0417"
           rx="94.191666"
           ry="89.958336" />
        <text
           xml:space="preserve"
           style="font-style:normal;font-variant:normal;font-weight:normal;font-stretch:normal;font-size:117.951px;font-family:'Bauhaus 93';-inkscape-font-specification:'Bauhaus 93, ';fill:#f7faff;fill-opacity:1;stroke:none;stroke-width:49.8288"
           x="241.49048"
           y="2545.0378"
           id="text34914"
           transform="scale(1.1429339,0.87494122)"><tspan
             sodipodi:role="line"
             id="tspan34912"
             style="font-size:117.951px;stroke-width:49.8288"
             x="241.49048"
             y="2545.0378">1</tspan></text>
      </g>
    </a>
    <g
       id="g37326"
       inkscape:label="chpt2"
       transform="matrix(1.0000035,0,0,1.0277526,-2.1200802,-16.293452)">
      <ellipse
         style="fill:#0044aa;stroke:none;stroke-width:21.4606"
         id="path34420-0"
         cx="234.95001"
         cy="2643.7166"
         rx="94.191666"
         ry="89.958336" />
      <text
         xml:space="preserve"
         style="font-style:normal;font-variant:normal;font-weight:normal;font-stretch:normal;font-size:116.676px;font-family:'Bauhaus 93';-inkscape-font-specification:'Bauhaus 93, ';fill:#f7faff;fill-opacity:1;stroke:none;stroke-width:49.29"
         x="200.23006"
         y="2669.0283"
         id="text34968"
         transform="scale(0.99366294,1.0063775)"><tspan
           sodipodi:role="line"
           id="tspan34966"
           style="stroke-width:49.29"
           x="200.23006"
           y="2669.0283">2</tspan></text>
    </g>
    <g
       id="g37331"
       inkscape:label="chpt3"
       transform="matrix(1.0000035,0,0,1.0277526,-2.1200802,-16.293452)">
      <ellipse
         style="fill:#0044aa;stroke:none;stroke-width:21.4606"
         id="path34420-02"
         cx="817.03339"
         cy="2709.3335"
         rx="94.191666"
         ry="89.958336" />
      <text
         xml:space="preserve"
         style="font-style:normal;font-variant:normal;font-weight:normal;font-stretch:normal;font-size:129.407px;font-family:'Bauhaus 93';-inkscape-font-specification:'Bauhaus 93, ';fill:#f7faff;fill-opacity:1;stroke:none;stroke-width:54.6684"
         x="731.18695"
         y="2942.96"
         id="text34972"
         transform="scale(1.0702498,0.9343613)"><tspan
           sodipodi:role="line"
           id="tspan34970"
           style="stroke-width:54.6684"
           x="731.18695"
           y="2942.96">3</tspan></text>
    </g>
    <g
       id="g37336"
       inkscape:label="chpt4"
       transform="matrix(1.0000035,0,0,1.0277526,-2.1200802,-16.293452)">
      <ellipse
         style="fill:#0044aa;stroke:none;stroke-width:21.4606"
         id="path34420-9"
         cx="611.71667"
         cy="2408.7668"
         rx="94.191666"
         ry="89.958336" />
      <text
         xml:space="preserve"
         style="font-style:normal;font-variant:normal;font-weight:normal;font-stretch:normal;font-size:133.985px;font-family:'Bauhaus 93';-inkscape-font-specification:'Bauhaus 93, ';fill:#f7faff;fill-opacity:1;stroke:none;stroke-width:56.6025"
         x="554.00641"
         y="2495.2522"
         id="text34976"
         transform="scale(1.0178015,0.98250987)"><tspan
           sodipodi:role="line"
           id="tspan34974"
           style="stroke-width:56.6025"
           x="554.00641"
           y="2495.2522">4</tspan></text>
    </g>
    <g
       id="g37341"
       inkscape:label="chpt5"
       transform="matrix(1.0000035,0,0,1.0277526,-2.1200802,-16.293452)">
      <ellipse
         style="fill:#0044aa;stroke:none;stroke-width:21.4606"
         id="path34420-8"
         cx="982.13336"
         cy="2222.5"
         rx="94.191666"
         ry="89.958336" />
      <text
         xml:space="preserve"
         style="font-style:normal;font-variant:normal;font-weight:normal;font-stretch:normal;font-size:136.771px;font-family:'Bauhaus 93';-inkscape-font-specification:'Bauhaus 93, ';fill:#f7faff;fill-opacity:1;stroke:none;stroke-width:57.7794"
         x="896.5127"
         y="2387.0181"
         id="text34980"
         transform="scale(1.0547038,0.9481335)"><tspan
           sodipodi:role="line"
           id="tspan34978"
           style="stroke-width:57.7794"
           x="896.5127"
           y="2387.0181">5</tspan></text>
    </g>
    <g
       id="g37346"
       inkscape:label="chpt6"
       transform="matrix(1.0000035,0,0,1.0277526,-2.1200802,-16.293452)">
      <ellipse
         style="fill:#0044aa;stroke:none;stroke-width:21.4606"
         id="path34420-3"
         cx="1098.5499"
         cy="2713.5667"
         rx="94.191666"
         ry="89.958336" />
      <text
         xml:space="preserve"
         style="font-style:normal;font-variant:normal;font-weight:normal;font-stretch:normal;font-size:138.593px;font-family:'Bauhaus 93';-inkscape-font-specification:'Bauhaus 93, ';fill:#f7faff;fill-opacity:1;stroke:none;stroke-width:58.5488"
         x="1056.5385"
         y="2769.1133"
         id="text34984"
         transform="scale(1.0033095,0.99670141)"><tspan
           sodipodi:role="line"
           id="tspan34982"
           style="stroke-width:58.5488"
           x="1056.5385"
           y="2769.1133">6</tspan></text>
    </g>
    <g
       id="g37351"
       inkscape:label="chpt7"
       transform="matrix(1.0000035,0,0,1.0277526,-2.1200802,-16.293452)">
      <ellipse
         style="fill:#0044aa;stroke:none;stroke-width:21.4606"
         id="path34420-2"
         cx="1697.5667"
         cy="2700.8667"
         rx="94.191666"
         ry="89.958336" />
      <text
         xml:space="preserve"
         style="font-style:normal;font-variant:normal;font-weight:normal;font-stretch:normal;font-size:139.259px;font-family:'Bauhaus 93';-inkscape-font-specification:'Bauhaus 93, ';fill:#f7faff;fill-opacity:1;stroke:none;stroke-width:58.8305"
         x="1567.8684"
         y="2900.6326"
         id="text34988"
         transform="scale(1.0578638,0.94530126)"><tspan
           sodipodi:role="line"
           id="tspan34986"
           style="stroke-width:58.8305"
           x="1567.8684"
           y="2900.6326">7</tspan></text>
    </g>
    <g
       id="g37356"
       inkscape:label="chpt8"
       transform="matrix(1.0000035,0,0,1.0277526,-2.1200802,-16.293452)">
      <ellipse
         style="fill:#0044aa;stroke:none;stroke-width:21.4606"
         id="path34420-21"
         cx="1416.0499"
         cy="2317.7498"
         rx="94.191666"
         ry="89.958336" />
      <text
         xml:space="preserve"
         style="font-style:normal;font-variant:normal;font-weight:normal;font-stretch:normal;font-size:138.937px;font-family:'Bauhaus 93';-inkscape-font-specification:'Bauhaus 93, ';fill:#f7faff;fill-opacity:1;stroke:none;stroke-width:58.6941"
         x="1372.9524"
         y="2369.271"
         id="text34992"
         transform="scale(1.0031428,0.99686703)"><tspan
           sodipodi:role="line"
           id="tspan34990"
           style="stroke-width:58.6941"
           x="1372.9524"
           y="2369.271">8</tspan></text>
    </g>
    <g
       id="g37361"
       inkscape:label="chpt9"
       transform="matrix(1.0000035,0,0,1.0277526,-2.1200802,-16.293452)">
      <ellipse
         style="fill:#0044aa;stroke:none;stroke-width:21.4606"
         id="path34420-21-7"
         cx="1714.5"
         cy="2167.4666"
         rx="94.191666"
         ry="89.958336" />
      <text
         xml:space="preserve"
         style="font-style:normal;font-variant:normal;font-weight:normal;font-stretch:normal;font-size:132.455px;font-family:'Bauhaus 93';-inkscape-font-specification:'Bauhaus 93, ';fill:#f7faff;fill-opacity:1;stroke:none;stroke-width:55.9558"
         x="1670.8499"
         y="2223.9648"
         id="text34996"
         transform="scale(1.0053854,0.99464346)"><tspan
           sodipodi:role="line"
           id="tspan34994"
           style="stroke-width:55.9558"
           x="1670.8499"
           y="2223.9648">9</tspan></text>
    </g>
  </g>
</svg>
