<?xml version="1.0" encoding="UTF-8" standalone="no"?>
<!-- Created with Inkscape (http://www.inkscape.org/) -->

<svg
   width="960.52667mm"
   height="478.12268mm"
   viewBox="0 0 960.52669 478.12268"
   version="1.1"
   id="svg5"
   inkscape:export-filename="girly.svg"
   inkscape:export-xdpi="96"
   inkscape:export-ydpi="96"
   inkscape:version="1.2.2 (732a01da63, 2022-12-09)"
   sodipodi:docname="homepage-static.svg"
   xmlns:inkscape="http://www.inkscape.org/namespaces/inkscape"
   xmlns:sodipodi="http://sodipodi.sourceforge.net/DTD/sodipodi-0.dtd"
   xmlns="http://www.w3.org/2000/svg"
   xmlns:svg="http://www.w3.org/2000/svg">
  <sodipodi:namedview
     id="namedview7"
     pagecolor="#ffffff"
     bordercolor="#000000"
     borderopacity="0.25"
     inkscape:showpageshadow="2"
     inkscape:pageopacity="0.0"
     inkscape:pagecheckerboard="0"
     inkscape:deskcolor="#d1d1d1"
     inkscape:document-units="mm"
     showgrid="false"
     inkscape:zoom="0.125"
     inkscape:cx="6248"
     inkscape:cy="2632"
     inkscape:window-width="1920"
     inkscape:window-height="1009"
     inkscape:window-x="-8"
     inkscape:window-y="-8"
     inkscape:window-maximized="1"
     inkscape:current-layer="layer1"
     showguides="true" />
  <defs
     id="defs2" />
  <g
     inkscape:label="Layer 1"
     inkscape:groupmode="layer"
     id="layer1"
     transform="translate(-1501.1481,-362.15392)">
    <path
       style="fill:#5599ff;fill-opacity:1;stroke:none;stroke-width:18.0948"
       d="m 2446.5641,840.2766 -931.1324,-0.0194 c -14.9322,-40.18867 -17.9645,-78.24115 -9.9973,-114.31913 13.4677,-52.9874 38.5328,-97.73162 82.7753,-130.1833 36.5365,-27.59266 78.6504,-44.05666 127.8383,-46.40512 35.3242,-47.04318 90.8275,-88.80026 237.1603,-106.76363 66.5435,-0.3801 134.1244,6.50594 210.1692,72.6738 43.4496,34.48863 63.4961,65.92399 74.5761,98.66019 55.4612,-14.87587 101.0385,-4.70884 141.4688,18.49879 35.8124,21.92748 65.6397,53.68677 80.4518,110.11182 3.7336,31.85818 2.7163,64.13725 -13.3101,97.74597 z"
       id="path87972"
       sodipodi:nodetypes="ccccccccccc"
       inkscape:export-filename="homepage-static.png"
       inkscape:export-xdpi="96"
       inkscape:export-ydpi="96" />
    <ellipse
       style="fill:#5599ff;stroke:none;stroke-width:0.989016"
       id="path1686"
       cx="2313.4385"
       cy="484.38074"
       rx="66.56636"
       ry="64.599571"
       inkscape:export-filename="insu-learn\src\assets\backgrounds\homepage-static.svg"
       inkscape:export-xdpi="96"
       inkscape:export-ydpi="96" />
    <rect
       style="fill:#0044aa;stroke:none;stroke-width:4.41919"
       id="rect1898"
       width="193.67818"
       height="216.95345"
       x="1976.6277"
       y="622.69153"
       ry="29.983974" />
    <rect
       style="fill:#d5e5ff;stroke:none;stroke-width:3.71282"
       id="rect2155"
       width="204.11308"
       height="51.047874"
       x="1971.4314"
       y="599.82489"
       ry="8.4430075" />
    <rect
       style="fill:#d5e5ff;stroke:none;stroke-width:3.95265"
       id="rect2211"
       width="157.09453"
       height="103.56829"
       x="1996.5337"
       y="668.34003"
       ry="8.4430075" />
    <rect
       style="fill:#550022;stroke:none;stroke-width:3.95265"
       id="rect2213"
       width="129.6568"
       height="10.307744"
       x="2008.3698"
       y="679.13867"
       ry="0" />
    <rect
       style="fill:#550022;stroke:none;stroke-width:3.95265"
       id="rect2267"
       width="91.68119"
       height="10.759473"
       x="2008.3932"
       y="694.32458" />
    <rect
       style="fill:#ac93a7;stroke:none;stroke-width:3.95265"
       id="rect2269"
       width="108.41966"
       height="10.585934"
       x="2008.4403"
       y="716.53772" />
    <rect
       style="fill:#ac93a7;stroke:none;stroke-width:3.85422"
       id="rect2323"
       width="55.160885"
       height="10.065313"
       x="2008.4878"
       y="733.06732" />
    <rect
       style="fill:#b7bec8;stroke:none;stroke-width:3.53695"
       id="rect2334"
       width="205.10063"
       height="280.58273"
       x="1745.2333"
       y="403.1225"
       ry="15.746471" />
    <rect
       style="fill:#ff0000;stroke:none;stroke-width:1.46719"
       id="rect2754"
       width="64.897758"
       height="19.375877"
       x="1769.7059"
       y="420.27835"
       ry="9.6879387" />
    <path
       style="fill:#ffffff;stroke:#ffffff;stroke-width:1.38095"
       d="m 1802.9737,420.19651 0.026,19.55303"
       id="path3006" />
    <path
       style="fill:#ffffff;stroke:#ffffff;stroke-width:0.248333"
       d="m 1803.7178,434.29287 c 0,-2.937 -0.014,-7.28273 -0.032,-9.65715 l -0.032,-4.31719 h 10.9676 c 7.3535,0 11.1012,0.0166 11.3729,0.0499 2.5231,0.31038 4.8161,1.55814 6.3896,3.47702 2.8421,3.46612 2.9235,8.42213 0.197,11.99254 -1.3417,1.75699 -3.4106,3.07625 -5.5753,3.55526 -1.1047,0.24446 -0.8542,0.23964 -12.4727,0.23964 h -10.8155 z"
       id="path3131" />
    <rect
       style="fill:#ff0000;stroke:none;stroke-width:1.46719"
       id="rect2754-5"
       width="64.897758"
       height="19.375877"
       x="1769.756"
       y="451.65567"
       ry="9.6879387" />
    <path
       style="fill:#ffffff;stroke:#ffffff;stroke-width:1.38095"
       d="m 1803.0238,451.57378 0.026,19.55303"
       id="path3006-4" />
    <path
       style="fill:#ffffff;stroke:#ffffff;stroke-width:0.248333"
       d="m 1803.7679,465.67014 c 0,-2.937 -0.014,-7.28273 -0.032,-9.65715 l -0.032,-4.31719 h 10.9676 c 7.3534,0 11.1012,0.0166 11.3727,0.0499 2.5232,0.31038 4.8162,1.55814 6.3898,3.47702 2.8421,3.46612 2.9235,8.42213 0.1968,11.99254 -1.3416,1.75699 -3.4106,3.07625 -5.5751,3.55527 -1.1047,0.24445 -0.8543,0.23963 -12.4729,0.23963 h -10.8154 z"
       id="path3131-3" />
    <rect
       style="fill:#ff0000;stroke:none;stroke-width:1.46719"
       id="rect2754-3"
       width="64.897758"
       height="19.375877"
       x="1859.2208"
       y="420.19342"
       ry="9.6879387" />
    <path
       style="fill:#ffffff;stroke:#ffffff;stroke-width:1.38095"
       d="m 1892.4887,420.11153 0.026,19.55294"
       id="path3006-0" />
    <path
       style="fill:#ffffff;stroke:#ffffff;stroke-width:0.248333"
       d="m 1893.2329,434.20781 c 0,-2.937 -0.014,-7.28266 -0.032,-9.65716 l -0.032,-4.31719 h 10.9677 c 7.3533,0 11.1011,0.0167 11.3727,0.0499 2.5232,0.31047 4.8162,1.55815 6.3897,3.47711 2.842,3.46612 2.9235,8.42213 0.1968,11.99254 -1.3416,1.75699 -3.4105,3.07625 -5.5752,3.55526 -1.1046,0.24446 -0.8542,0.23963 -12.4728,0.23963 h -10.8147 z"
       id="path3131-8" />
    <rect
       style="fill:#ff0000;stroke:none;stroke-width:1.46719"
       id="rect2754-50"
       width="64.897758"
       height="19.375877"
       x="1859.3405"
       y="451.55853"
       ry="9.6879387" />
    <path
       style="fill:#ffffff;stroke:#ffffff;stroke-width:1.38095"
       d="m 1892.6083,451.47664 0.026,19.55303"
       id="path3006-6" />
    <path
       style="fill:#ffffff;stroke:#ffffff;stroke-width:0.248333"
       d="m 1893.3525,465.57301 c 0,-2.937 -0.014,-7.28274 -0.032,-9.65716 l -0.032,-4.31718 h 10.9677 c 7.3534,0 11.1012,0.0166 11.3728,0.0499 2.5232,0.31038 4.8161,1.55814 6.3896,3.47702 2.8421,3.46612 2.9235,8.42213 0.1969,11.99254 -1.3417,1.75699 -3.4105,3.07633 -5.5752,3.55526 -1.1047,0.24446 -0.8542,0.23963 -12.4728,0.23963 h -10.8153 z"
       id="path3131-9" />
    <rect
       style="fill:#ff0000;stroke:none;stroke-width:1.46719"
       id="rect2754-0"
       width="64.897758"
       height="19.375877"
       x="1859.4432"
       y="483.24146"
       ry="9.6879387" />
    <path
       style="fill:#ffffff;stroke:#ffffff;stroke-width:1.38095"
       d="m 1892.7111,483.15963 0.026,19.55295"
       id="path3006-02" />
    <path
       style="fill:#ffffff;stroke:#ffffff;stroke-width:0.248333"
       d="m 1893.4553,497.25592 c 0,-2.937 -0.014,-7.28274 -0.032,-9.65716 l -0.032,-4.31719 h 10.9676 c 7.3534,0 11.1011,0.0167 11.3727,0.0499 2.5232,0.31038 4.8162,1.55815 6.3897,3.47702 2.8421,3.46612 2.9236,8.42213 0.197,11.99263 -1.3418,1.7569 -3.4107,3.07625 -5.5753,3.55526 -1.1046,0.24438 -0.8543,0.23963 -12.4728,0.23963 h -10.8154 z"
       id="path3131-1" />
    <rect
       style="fill:#ff0000;stroke:none;stroke-width:1.46719"
       id="rect2754-6"
       width="64.897758"
       height="19.375877"
       x="1859.6207"
       y="515.04175"
       ry="9.6879387" />
    <path
       style="fill:#ffffff;stroke:#ffffff;stroke-width:1.38095"
       d="m 1892.8885,514.95982 0.026,19.55294"
       id="path3006-7" />
    <path
       style="fill:#ffffff;stroke:#ffffff;stroke-width:0.248333"
       d="m 1893.6326,529.0561 c 0,-2.937 -0.014,-7.28274 -0.032,-9.65716 l -0.032,-4.31718 h 10.9677 c 7.3535,0 11.1011,0.0166 11.3727,0.0499 2.5232,0.31038 4.8162,1.55814 6.3897,3.4771 2.8421,3.46604 2.9236,8.42205 0.1969,11.99254 -1.3416,1.75691 -3.4106,3.07625 -5.5752,3.55526 -1.1047,0.24438 -0.8542,0.23964 -12.4728,0.23964 h -10.8154 z"
       id="path3131-2" />
    <rect
       style="fill:#ff0000;stroke:none;stroke-width:1.46719"
       id="rect2754-34"
       width="64.897758"
       height="19.375877"
       x="1859.6251"
       y="546.34625"
       ry="9.6879387" />
    <path
       style="fill:#ffffff;stroke:#ffffff;stroke-width:1.38095"
       d="m 1892.893,546.26434 0.026,19.55295"
       id="path3006-2" />
    <path
       style="fill:#ffffff;stroke:#ffffff;stroke-width:0.248333"
       d="m 1893.6372,560.36062 c 0,-2.937 -0.014,-7.28273 -0.032,-9.65715 l -0.032,-4.31719 h 10.9676 c 7.3534,0 11.1012,0.0166 11.3728,0.0499 2.5231,0.31038 4.8161,1.55814 6.3896,3.47702 2.8421,3.46612 2.9235,8.42213 0.197,11.99263 -1.3417,1.7569 -3.4106,3.07625 -5.5753,3.55518 -1.1046,0.24445 -0.8543,0.23963 -12.4727,0.23963 h -10.8155 z"
       id="path3131-33" />
    <rect
       style="fill:#ff0000;stroke:none;stroke-width:1.46719"
       id="rect2754-8"
       width="64.897758"
       height="19.375877"
       x="1859.5409"
       y="577.78882"
       ry="9.6879387" />
    <path
       style="fill:#ffffff;stroke:#ffffff;stroke-width:1.38095"
       d="m 1892.8088,577.70687 0.026,19.55303"
       id="path3006-46" />
    <path
       style="fill:#ffffff;stroke:#ffffff;stroke-width:0.248333"
       d="m 1893.553,591.80323 c 0,-2.937 -0.014,-7.28273 -0.032,-9.65724 l -0.032,-4.31718 h 10.9677 c 7.3534,0 11.101,0.0166 11.3727,0.0499 2.5232,0.31046 4.8162,1.55814 6.3896,3.4771 2.8421,3.46612 2.9235,8.42213 0.197,11.99254 -1.3417,1.75699 -3.4106,3.07625 -5.5753,3.55527 -1.1046,0.24445 -0.8542,0.23963 -12.4727,0.23963 h -10.8155 z"
       id="path3131-31" />
    <rect
       style="fill:#ff0000;stroke:none;stroke-width:1.46719"
       id="rect2754-7"
       width="64.897758"
       height="19.375877"
       x="1859.5812"
       y="645.45343"
       ry="9.6879387" />
    <path
       style="fill:#ffffff;stroke:#ffffff;stroke-width:1.38095"
       d="m 1892.8489,645.37156 0.026,19.55294"
       id="path3006-44" />
    <path
       style="fill:#ffffff;stroke:#ffffff;stroke-width:0.248333"
       d="m 1893.5931,659.46784 c 0,-2.937 -0.015,-7.28274 -0.032,-9.65716 l -0.032,-4.31718 h 10.9676 c 7.3534,0 11.1012,0.0166 11.3728,0.0499 2.5232,0.31038 4.8161,1.55814 6.3896,3.47702 2.8422,3.46612 2.9236,8.42213 0.1969,11.99262 -1.3416,1.75691 -3.4106,3.07625 -5.5751,3.55526 -1.1048,0.24438 -0.8542,0.23964 -12.4729,0.23964 h -10.8154 z"
       id="path3131-6" />
    <rect
       style="fill:#ff0000;stroke:none;stroke-width:1.46719"
       id="rect2754-86"
       width="64.897758"
       height="19.375877"
       x="1859.5692"
       y="610.42804"
       ry="9.6879387" />
    <path
       style="fill:#ffffff;stroke:#ffffff;stroke-width:1.38095"
       d="m 1892.8372,610.34613 0.026,19.55303"
       id="path3006-21" />
    <path
       style="fill:#ffffff;stroke:#ffffff;stroke-width:0.248333"
       d="m 1893.5813,624.4425 c 0,-2.937 -0.014,-7.28274 -0.032,-9.65716 l -0.032,-4.31718 h 10.9677 c 7.3533,0 11.101,0.0166 11.3727,0.0499 2.5232,0.31038 4.8162,1.55814 6.3897,3.47702 2.8421,3.46612 2.9235,8.42213 0.1968,11.99254 -1.3415,1.75699 -3.4105,3.07633 -5.5751,3.55526 -1.1048,0.24446 -0.8542,0.23963 -12.4729,0.23963 h -10.8145 z"
       id="path3131-5" />
    <rect
       style="fill:#ff0000;stroke:none;stroke-width:1.46719"
       id="rect2754-06"
       width="64.897758"
       height="19.375877"
       x="1769.7653"
       y="483.25272"
       ry="9.6879387" />
    <path
       style="fill:#ffffff;stroke:#ffffff;stroke-width:1.38095"
       d="m 1803.0331,483.17087 0.026,19.55295"
       id="path3006-20" />
    <path
       style="fill:#ffffff;stroke:#ffffff;stroke-width:0.248333"
       d="m 1803.7772,497.26715 c 0,-2.937 -0.014,-7.28273 -0.032,-9.65715 l -0.032,-4.31719 h 10.9676 c 7.3535,0 11.1012,0.0167 11.3727,0.0499 2.5232,0.31038 4.8162,1.55814 6.3897,3.47702 2.8422,3.46612 2.9236,8.42213 0.197,11.99263 -1.3417,1.7569 -3.4107,3.07625 -5.5752,3.55526 -1.1048,0.24437 -0.8543,0.23963 -12.4729,0.23963 h -10.8154 z"
       id="path3131-0" />
    <rect
       style="fill:#ff0000;stroke:none;stroke-width:1.46719"
       id="rect2754-58"
       width="64.897758"
       height="19.375877"
       x="1769.7434"
       y="546.48529"
       ry="9.6879387" />
    <path
       style="fill:#ffffff;stroke:#ffffff;stroke-width:1.38095"
       d="m 1803.0112,546.40334 0.026,19.55295"
       id="path3006-29" />
    <path
       style="fill:#ffffff;stroke:#ffffff;stroke-width:0.248333"
       d="m 1803.7553,560.49963 c 0,-2.937 -0.014,-7.28274 -0.032,-9.65716 l -0.032,-4.31719 h 10.9676 c 7.3534,0 11.1012,0.0167 11.3728,0.0499 2.5232,0.31038 4.8161,1.55814 6.3897,3.47702 2.842,3.46612 2.9235,8.42213 0.1969,11.99263 -1.3417,1.7569 -3.4106,3.07625 -5.5753,3.55526 -1.1046,0.24438 -0.8542,0.23963 -12.4727,0.23963 h -10.8154 z"
       id="path3131-11" />
    <rect
       style="fill:#ff0000;stroke:none;stroke-width:1.46719"
       id="rect2754-64"
       width="64.897758"
       height="19.375877"
       x="1769.8237"
       y="577.8078"
       ry="9.6879387" />
    <path
       style="fill:#ffffff;stroke:#ffffff;stroke-width:1.38095"
       d="m 1803.0916,577.72593 0.026,19.55294"
       id="path3006-65" />
    <path
       style="fill:#ffffff;stroke:#ffffff;stroke-width:0.248333"
       d="m 1803.8358,591.82221 c 0,-2.937 -0.014,-7.28265 -0.032,-9.65716 l -0.032,-4.31718 h 10.9677 c 7.3533,0 11.101,0.0166 11.3727,0.0499 2.5232,0.31046 4.8162,1.55814 6.3897,3.4771 2.842,3.46604 2.9235,8.42213 0.1968,11.99254 -1.3416,1.75691 -3.4105,3.07625 -5.5752,3.55527 -1.1046,0.24445 -0.8542,0.23963 -12.4728,0.23963 h -10.8154 z"
       id="path3131-4" />
    <rect
       style="fill:#ff0000;stroke:none;stroke-width:1.46719"
       id="rect2754-1"
       width="64.897758"
       height="19.375877"
       x="1769.7699"
       y="645.4574"
       ry="9.6879387" />
    <path
       style="fill:#ffffff;stroke:#ffffff;stroke-width:1.38095"
       d="m 1803.0377,645.37547 0.026,19.55295"
       id="path3006-468" />
    <path
       style="fill:#ffffff;stroke:#ffffff;stroke-width:0.248333"
       d="m 1803.7819,659.47175 c 0,-2.937 -0.014,-7.28265 -0.032,-9.65715 l -0.032,-4.31719 h 10.9676 c 7.3534,0 11.1011,0.0166 11.3728,0.0499 2.5232,0.31046 4.8161,1.55814 6.3896,3.4771 2.8421,3.46604 2.9235,8.42213 0.1969,11.99254 -1.3416,1.75691 -3.4106,3.07625 -5.5752,3.55527 -1.1046,0.24446 -0.8542,0.23963 -12.4728,0.23963 h -10.8154 z"
       id="path3131-318" />
    <rect
       style="fill:#ff0000;stroke:none;stroke-width:1.46719"
       id="rect2754-55"
       width="64.897758"
       height="19.375877"
       x="1769.7781"
       y="610.47351"
       ry="9.6879387" />
    <path
       style="fill:#ffffff;stroke:#ffffff;stroke-width:1.38095"
       d="m 1803.0459,610.39166 0.026,19.55303"
       id="path3006-45" />
    <path
       style="fill:#ffffff;stroke:#ffffff;stroke-width:0.248333"
       d="m 1803.7901,624.48803 c 0,-2.937 -0.014,-7.28274 -0.032,-9.65716 l -0.032,-4.31727 h 10.9677 c 7.3534,0 11.1011,0.0167 11.3727,0.0499 2.5233,0.31047 4.8162,1.55823 6.3897,3.47711 2.8421,3.46612 2.9235,8.42213 0.1969,11.99254 -1.3416,1.75699 -3.4106,3.07625 -5.5752,3.55526 -1.1047,0.24446 -0.8542,0.23963 -12.4728,0.23963 h -10.8154 z"
       id="path3131-14" />
    <rect
       style="fill:#ff0000;stroke:none;stroke-width:1.46719"
       id="rect2754-9"
       width="64.897758"
       height="19.375877"
       x="1769.7206"
       y="515.51978"
       ry="9.6879387" />
    <path
       style="fill:#ffffff;stroke:#ffffff;stroke-width:1.38095"
       d="m 1802.9883,515.43791 0.026,19.55295"
       id="path3006-5" />
    <path
       style="fill:#ffffff;stroke:#ffffff;stroke-width:0.248333"
       d="m 1803.7324,529.5342 c 0,-2.937 -0.014,-7.28274 -0.032,-9.65716 l -0.032,-4.31719 h 10.9677 c 7.3535,0 11.1012,0.0167 11.3728,0.0499 2.5231,0.31038 4.8161,1.55815 6.3896,3.47703 2.8421,3.46611 2.9236,8.42212 0.1969,11.99254 -1.3416,1.75698 -3.4105,3.07633 -5.5752,3.55526 -1.1047,0.24446 -0.8542,0.23963 -12.4727,0.23963 h -10.8154 z"
       id="path3131-95" />
    <path
       style="fill:#ff5599;stroke:none;stroke-width:3.49034"
       id="path5369"
       sodipodi:type="arc"
       sodipodi:cx="1710.2618"
       sodipodi:cy="708.39313"
       sodipodi:rx="134.80403"
       sodipodi:ry="130.58968"
       sodipodi:start="0"
       sodipodi:end="6.2831824"
       sodipodi:arc-type="slice"
       d="m 1845.0659,708.39313 a 134.80403,130.58968 0 0 1 -134.8041,130.58967 134.80403,130.58968 0 0 1 -134.804,-130.58948 134.80403,130.58968 0 0 1 134.8037,-130.58987 134.80403,130.58968 0 0 1 134.8044,130.5893 l -134.8041,3.8e-4 z" />
    <path
       style="fill:#ff2a7f;stroke:none;stroke-width:4.70511"
       id="path6103"
       sodipodi:type="arc"
       sodipodi:cx="1709.3157"
       sodipodi:cy="701.27008"
       sodipodi:rx="79.936432"
       sodipodi:ry="75.979454"
       sodipodi:start="0"
       sodipodi:end="6.2831824"
       sodipodi:arc-type="slice"
       d="m 1789.2521,701.27008 a 79.936432,75.979454 0 0 1 -79.9364,75.97945 79.936432,75.979454 0 0 1 -79.9365,-75.97934 79.936432,75.979454 0 0 1 79.9363,-75.97956 79.936432,75.979454 0 0 1 79.9366,75.97923 l -79.9364,2.2e-4 z" />
    <path
       style="fill:#5599ff;stroke:none;stroke-width:3.49034"
       id="path5373"
       sodipodi:type="arc"
       sodipodi:cx="1708.8435"
       sodipodi:cy="711.71729"
       sodipodi:rx="43.515694"
       sodipodi:ry="42.738445"
       sodipodi:start="0"
       sodipodi:end="6.2831824"
       sodipodi:arc-type="slice"
       d="m 1752.3592,711.71729 a 43.515694,42.738445 0 0 1 -43.5157,42.73844 43.515694,42.738445 0 0 1 -43.5157,-42.73838 43.515694,42.738445 0 0 1 43.5156,-42.73851 43.515694,42.738445 0 0 1 43.5158,42.73832 l -43.5157,1.3e-4 z" />
    <path
       style="fill:#d42aff;stroke:#dd55ff;stroke-width:4.73919"
       d="m 1733.3746,806.35944 c -15.7059,12.91744 -15.7059,12.91744 -15.7059,12.91744"
       id="path7113-5" />
    <path
       style="fill:#d42aff;stroke:#dd55ff;stroke-width:4.73919"
       d="m 1602.1097,680.91428 c -13.385,15.32698 -13.385,15.32698 -13.385,15.32698"
       id="path7113-4" />
    <path
       style="fill:#d42aff;stroke:#dd55ff;stroke-width:4.73919"
       d="m 1680.0737,655.40576 c -14.7927,13.96153 -14.7927,13.96153 -14.7927,13.96153"
       id="path7113-54" />
    <path
       style="fill:#d42aff;stroke:#dd55ff;stroke-width:4.73919"
       d="m 1716.4632,590.02419 c 12.6857,15.91503 12.6857,15.91503 12.6857,15.91503"
       id="path7113" />
    <path
       style="fill:#d42aff;stroke:#dd55ff;stroke-width:4.73919"
       d="m 1803.1725,659.35439 c -11.4843,16.80947 -11.4843,16.80947 -11.4843,16.80947"
       id="path7113-1" />
    <path
       style="fill:#ffe680;stroke:#ffe680;stroke-width:4.73919"
       d="m 1767.7199,612.68027 c -11.4843,16.80947 -11.4843,16.80947 -11.4843,16.80947"
       id="path7113-1-9" />
    <path
       style="fill:#ffe680;stroke:#ffe680;stroke-width:4.73919"
       d="m 1792.0133,706.65377 c -15.9228,-12.64709 -15.9228,-12.64709 -15.9228,-12.64709"
       id="path7113-1-9-8" />
    <path
       style="fill:#ffe680;stroke:#ffe680;stroke-width:4.73919"
       d="m 1737.8232,782.45335 c 18.2078,9.01883 18.2078,9.01883 18.2078,9.01883"
       id="path7113-1-9-9" />
    <path
       style="fill:#ffe680;stroke:#ffe680;stroke-width:4.73919"
       d="m 1822.3701,752.821 c -17.7715,9.85692 -17.7715,9.85692 -17.7715,9.85692"
       id="path7113-1-9-7" />
    <path
       style="fill:#ffe680;stroke:#ffe680;stroke-width:4.73919"
       d="m 1670.9884,800.63451 c -16.6899,11.6075 -16.6899,11.6075 -16.6899,11.6075"
       id="path7113-1-9-99" />
    <path
       style="fill:#ffe680;stroke:#ffe680;stroke-width:4.73919"
       d="m 1600.6136,711.98408 c 19.7084,4.89825 19.7084,4.89825 19.7084,4.89825"
       id="path7113-1-9-1" />
    <path
       style="fill:#ffe680;stroke:#ffe680;stroke-width:4.73919"
       d="m 1631.734,620.1229 c 3.6227,20.0566 3.6227,20.0566 3.6227,20.0566"
       id="path7113-1-9-4" />
    <path
       style="fill:#ffe680;stroke:#ffe680;stroke-width:4.73919"
       d="m 1697.5706,609.47692 c -19.6854,-4.9898 -19.6854,-4.9898 -19.6854,-4.9898"
       id="path7113-1-9-15" />
    <path
       style="fill:#00aa00;stroke:#00d400;stroke-width:4.73919"
       d="m 1615.3989,768.67277 c -9.8622,-17.81726 -9.8622,-17.81726 -9.8622,-17.81726"
       id="path7113-1-9-996" />
    <path
       style="fill:#00aa00;stroke:#00d400;stroke-width:4.73919"
       d="m 1815.4443,681.91001 c 9.4588,18.0365 9.4588,18.0365 9.4588,18.0365"
       id="path7113-1-9-996-2" />
    <path
       style="fill:#00aa00;stroke:#00d400;stroke-width:4.73919"
       d="m 1780.2896,630.64935 c 20.235,-1.66784 20.235,-1.66784 20.235,-1.66784"
       id="path7113-1-9-996-9" />
    <path
       style="fill:#00aa00;stroke:#00d400;stroke-width:4.73919"
       d="m 1745.3112,635.51364 c -11.4843,16.80947 -11.4843,16.80947 -11.4843,16.80947"
       id="path7113-1-9-996-83" />
    <path
       style="fill:#00aa00;stroke:#00d400;stroke-width:4.73919"
       d="m 1629.4453,670.83496 c -13.8739,-14.88218 -13.8739,-14.88218 -13.8739,-14.88218"
       id="path7113-1-9-996-23" />
    <path
       style="fill:#00aa00;stroke:#ff6600;stroke-width:4.73919"
       d="m 1651.6626,712.40841 c -11.4844,16.80947 -11.4844,16.80947 -11.4844,16.80947"
       id="path7113-1-9-996-6" />
    <path
       style="fill:#00aa00;stroke:#ff6600;stroke-width:4.73919"
       d="m 1629.8658,776.1884 c 2.6771,20.20558 2.6771,20.20558 2.6771,20.20558"
       id="path7113-1-9-996-6-5" />
    <path
       style="fill:#00aa00;stroke:#ff6600;stroke-width:4.73919"
       d="m 1811.4723,718.03029 c -1.327,20.34018 -1.327,20.34018 -1.327,20.34018"
       id="path7113-1-9-996-6-3" />
    <path
       style="fill:#00aa00;stroke:#ff6600;stroke-width:4.73919"
       d="m 1653.8086,617.38075 c 16.3318,12.10948 16.3318,12.10948 16.3318,12.10948"
       id="path7113-1-9-996-6-1" />
    <path
       style="fill:#00aa00;stroke:#00d400;stroke-width:4.73919"
       d="m 1719.1907,794.05485 c -20.1151,-2.76761 -20.1151,-2.76761 -20.1151,-2.76761"
       id="path7113-1-9-996-8" />
    <path
       style="fill:#00aa00;stroke:#00d400;stroke-width:4.73919"
       d="m 1782.7705,735.91331 c -11.4843,16.80947 -11.4843,16.80947 -11.4843,16.80947"
       id="path7113-1-9-996-4" />
    <path
       style="fill:#d42aff;stroke:#dd55ff;stroke-width:4.73919"
       d="m 1792.6017,772.47133 c 2.2998,20.25244 2.2998,20.25244 2.2998,20.25244"
       id="path7113-2" />
    <path
       style="fill:#d42aff;stroke:#dd55ff;stroke-width:4.73919"
       d="m 1650.2802,762.88758 c 12.6858,15.91495 12.6858,15.91495 12.6858,15.91495"
       id="path7113-9" />
    <path
       style="fill:#d40055;stroke:none;stroke-width:2.11887"
       d="m 1984.7754,500.39443 36.8048,99.07758 108.2223,0.1559 34.6123,-99.38963 z"
       id="path8471"
       sodipodi:nodetypes="ccccc" />
    <path
       style="fill:#d40055;stroke:#11002b;stroke-width:2.11887"
       d="m 1993.3893,499.61427 30.6969,82.38265"
       id="path8529" />
    <path
       style="fill:#d40055;stroke:#11002b;stroke-width:2.11887"
       d="m 2004.6657,500.86254 20.0468,58.04224"
       id="path8531" />
    <path
       style="fill:#d40055;stroke:#11002b;stroke-width:2.11887"
       d="m 2015.9421,500.23845 34.4559,90.49597"
       id="path8533" />
    <rect
       style="fill:#ffd5e5;stroke:none;stroke-width:2.43623"
       id="rect8587"
       width="218.63716"
       height="46.8083"
       x="1961.7528"
       y="453.43018"
       ry="23.40415" />
    <rect
       style="fill:#ffd5e5;stroke:none;stroke-width:2.04371"
       id="rect8587-5"
       width="153.86234"
       height="46.8083"
       x="1997.295"
       y="421.91245"
       ry="23.40415" />
    <ellipse
       style="fill:#d40000;stroke:none;stroke-width:1.95869"
       id="path8928"
       cx="2072.9954"
       cy="386.88431"
       rx="26.155022"
       ry="24.730387" />
    <rect
       style="fill:#ffd5e5;stroke:none;stroke-width:1.53215"
       id="rect8587-5-6"
       width="86.474106"
       height="46.8083"
       x="2029.1093"
       y="397.26013"
       ry="23.40415" />
  </g>
</svg>
