<?xml version="1.0" encoding="UTF-8" standalone="no"?>
<!-- Created with Inkscape (http://www.inkscape.org/) -->

<svg
   width="22.60775mm"
   height="19.472944mm"
   viewBox="0 0 22.60775 19.472944"
   version="1.1"
   id="svg5"
   inkscape:export-filename="girly.svg"
   inkscape:export-xdpi="96"
   inkscape:export-ydpi="96"
   inkscape:version="1.2.2 (732a01da63, 2022-12-09)"
   sodipodi:docname="menu-icon.svg"
   xmlns:inkscape="http://www.inkscape.org/namespaces/inkscape"
   xmlns:sodipodi="http://sodipodi.sourceforge.net/DTD/sodipodi-0.dtd"
   xmlns="http://www.w3.org/2000/svg"
   xmlns:svg="http://www.w3.org/2000/svg">
  <sodipodi:namedview
     id="namedview7"
     pagecolor="#ffffff"
     bordercolor="#000000"
     borderopacity="0.25"
     inkscape:showpageshadow="2"
     inkscape:pageopacity="0.0"
     inkscape:pagecheckerboard="0"
     inkscape:deskcolor="#d1d1d1"
     inkscape:document-units="mm"
     showgrid="false"
     inkscape:zoom="0.52221045"
     inkscape:cx="2065.2593"
     inkscape:cy="3280.2867"
     inkscape:window-width="1680"
     inkscape:window-height="979"
     inkscape:window-x="131"
     inkscape:window-y="-8"
     inkscape:window-maximized="1"
     inkscape:current-layer="layer1"
     showguides="true" />
  <defs
     id="defs2" />
  <g
     inkscape:label="Layer 1"
     inkscape:groupmode="layer"
     id="layer1"
     transform="translate(-59.98233,-518.76294)">
    <path
       style="fill:#aaccff;stroke:#000000;stroke-width:0.932844"
       d="m 63.261076,537.22169 c -1.21203,-0.60566 -1.873009,-1.28288 -2.437612,-2.49745 -0.354387,-0.76237 -0.374713,-1.10247 -0.374713,-6.2696 0,-4.80287 0.0376,-5.54664 0.310941,-6.15106 0.500049,-1.10569 1.295815,-1.97969 2.318073,-2.54598 l 0.953616,-0.52824 h 7.254825 c 7.187062,0 7.261892,0.004 8.011377,0.40426 1.021119,0.54562 1.880936,1.43756 2.397662,2.48722 0.423415,0.86013 0.428416,0.93408 0.428416,6.3338 0,4.80285 -0.0376,5.54665 -0.310941,6.15104 -0.538935,1.19168 -1.351166,2.04123 -2.500794,2.61569 l -1.096815,0.54809 H 71.286206 64.3573 Z"
       id="path574-0"
       sodipodi:nodetypes="csscccscsscccccc" />
    <path
       style="fill:#000000;stroke-width:2.15094"
       d="m 71.096606,524.20971 -10e-7,9.04614 -2.48545,-3.00045 -4.187196,0.0896 0.02239,-3.35871 h 4.052849 z"
       id="path1153"
       sodipodi:nodetypes="ccccccc" />
    <path
       style="fill:none;stroke:#000000;stroke-width:1.26524"
       d="m 72.686396,526.31451 c 0.872714,1.40807 1.304097,2.90196 0.04478,4.72459"
       id="path1155"
       sodipodi:nodetypes="cc" />
    <path
       style="fill:none;stroke:#000000;stroke-width:1.26524"
       d="m 74.410537,524.54558 c 1.712325,2.63378 1.85443,5.42724 0.04478,8.41918"
       id="path1182"
       sodipodi:nodetypes="cc" />
    <path
       style="fill:none;stroke:#000000;stroke-width:1.26524"
       d="m 76.672074,534.39781 c 2.51261,-3.50989 3.407083,-7.05466 -0.02238,-11.44202"
       id="path1184"
       sodipodi:nodetypes="cc" />
  </g>
</svg>
