<?xml version="1.0" encoding="UTF-8" standalone="no"?>
<!-- Created with Inkscape (http://www.inkscape.org/) -->

<svg
    width="90.090866mm"
    height="117.64485mm"
    viewBox="0 0 90.090866 117.64485"
    version="1.1"
    id="svg5"
    inkscape:export-filename="girly.svg"
    inkscape:export-xdpi="96"
    inkscape:export-ydpi="96"
    inkscape:version="1.2.2 (732a01da63, 2022-12-09)"
    sodipodi:docname="prototype2.svg"
    xmlns:inkscape="http://www.inkscape.org/namespaces/inkscape"
    xmlns:sodipodi="http://sodipodi.sourceforge.net/DTD/sodipodi-0.dtd"
    xmlns="http://www.w3.org/2000/svg"
    xmlns:svg="http://www.w3.org/2000/svg">
    <sodipodi:namedview
        id="namedview7"
        pagecolor="#ffffff"
        bordercolor="#000000"
        borderopacity="0.25"
        inkscape:showpageshadow="2"
        inkscape:pageopacity="0.0"
        inkscape:pagecheckerboard="0"
        inkscape:deskcolor="#d1d1d1"
        inkscape:document-units="mm"
        showgrid="false"
        inkscape:zoom="1.4770342"
        inkscape:cx="351.71832"
        inkscape:cy="341.90135"
        inkscape:window-width="1680"
        inkscape:window-height="979"
        inkscape:window-x="131"
        inkscape:window-y="-8"
        inkscape:window-maximized="1"
        inkscape:current-layer="g1363" />
    <defs
        id="defs2" />
    <g
        inkscape:label="Layer 1"
        inkscape:groupmode="layer"
        id="layer1"
        transform="translate(-47.827806,-24.391673)">
        <g
            id="g1363"
            inkscape:label="girl">
            <path
                style="fill:#5599ff;stroke:#000000;stroke-width:0.591214"
                d="M 82.54987,98.908139 68.706825,121.62014 120.05633,121.28388 105.97108,98.988849"
                id="path167"
                sodipodi:nodetypes="cccc"
                inkscape:export-filename=".\girly.svg"
                inkscape:export-xdpi="96"
                inkscape:export-ydpi="96" />
            <path
                style="fill:none;stroke:#000000;stroke-width:0.878357"
                d="m 75.619017,121.71461 4.169358,19.02755 5.749795,-9.27456 17.05331,0.12488 6.10835,9.30049 3.74039,-19.29209"
                id="path265"
                sodipodi:nodetypes="cccccc" />
            <path
                style="fill:none;stroke:#000000;stroke-width:0.591214"
                d="m 76.365373,98.42593 -8.849533,13.23593 5.801788,2.25992"
                id="path375"
                sodipodi:nodetypes="ccc" />
            <path
                style="fill:none;stroke:#000000;stroke-width:0.591214"
                d="m 112.14909,98.385028 8.84412,12.934282 -5.80179,2.25992"
                id="path375-0"
                sodipodi:nodetypes="ccc" />
            <ellipse
                style="fill:none;stroke:#000000;stroke-width:0.494518"
                id="path467"
                cx="96.23542"
                cy="94.876373"
                rx="3.0085807"
                ry="2.4491057"
                transform="matrix(0.97046721,0.24123305,-0.25342086,0.96735612,0,0)" />
            <ellipse
                style="fill:none;stroke:#000000;stroke-width:0.494518"
                id="path467-1"
                cx="86.426125"
                cy="-140.07649"
                rx="3.0085807"
                ry="2.4491057"
                transform="matrix(0.97046721,-0.24123305,-0.25342086,-0.96735612,0,0)" />
            <path
                style="fill:#502d16;stroke:#000000;stroke-width:0.878357"
                d="M 106.90386,51.961317 C 93.681834,58.539861 81.6641,66.284431 63.080652,67.67193 62.563456,78.934873 62.429323,90.649104 58.457416,97.842045 50.860889,88.112341 45.150966,59.728046 55.519697,47.965666 c 22.365224,-25.371313 73.829953,-10.479453 77.828023,0.23242 2.99703,8.029861 3.11591,35.442882 -0.60228,49.154392 -19.8347,-14.865469 4.8086,-42.004758 -25.84158,-45.391161 z"
                id="path491"
                sodipodi:nodetypes="cccsscc" />
            <path
                style="fill:none;stroke:#000000;stroke-width:0.591214"
                d="m 63.115857,67.604286 c 0,0 -2.187088,24.621873 2.778889,28.274482 5.7414,4.222952 39.645084,4.262532 51.246484,1.651436 8.55831,-1.926193 7.16159,-14.568233 7.16159,-14.568233"
                id="path1328"
                sodipodi:nodetypes="cssc" />
            <path
                style="fill:none;stroke:#000000;stroke-width:0.878357"
                d="m 75.087161,73.267502 c 5.366868,-3.244024 8.810998,-2.269692 11.820224,-0.341212 m 10.349443,0.552467 c 5.366872,-3.244023 8.811002,-2.269691 11.820222,-0.341212"
                id="path1365"
                sodipodi:nodetypes="cc" />
            <path
                style="fill:#ffe6d5;stroke:#ffe6d5;stroke-width:1.06974"
                d="m 322.42747,373.40872 c -36.37619,-1.73467 -61.74307,-5.74215 -71.11579,-11.23492 -6.2032,-3.63532 -9.78029,-13.81748 -12.02916,-34.24088 -1.10482,-10.03357 -1.23185,-46.03009 -0.21625,-61.27798 0.35952,-5.39773 0.682,-9.84504 0.71662,-9.88292 0.0346,-0.0379 3.50982,-0.43411 7.72268,-0.88049 26.69348,-2.8284 53.34477,-9.75023 79.70925,-20.70197 15.69053,-6.51781 24.43301,-10.76707 64.84847,-31.51942 9.44675,-4.85068 12.30335,-6.11466 13.64393,-6.03714 3.62087,0.20938 15.84304,2.6637 21.08431,4.23392 6.44031,1.92943 15.14177,5.96709 19.38518,8.99512 9.68624,6.91196 15.88999,16.80033 18.63429,29.70189 1.83123,8.60901 2.62575,21.96353 2.67731,45.00101 0.0153,6.8459 0.24119,14.70911 0.50192,17.4738 3.19564,33.88561 -3.49735,54.74951 -19.98468,62.29784 -6.63766,3.03889 -26.81251,5.86045 -54.48605,7.62015 -10.39162,0.66079 -60.0879,0.97674 -71.09203,0.45199 z m 60.11075,-100.32087 c 3.4484,-1.02741 5.25474,-1.27511 9.30571,-1.27611 5.93465,-10e-4 9.57604,0.97146 15.66975,4.1867 l 3.94076,2.07927 1.04675,-1.47003 c 1.02672,-1.44189 1.02918,-1.48324 0.12848,-2.16033 -2.15539,-1.62028 -8.72586,-4.57947 -12.06339,-5.43307 -7.3591,-1.88214 -16.76162,-0.99302 -24.82041,2.34707 -3.6078,1.49531 -9.26082,4.46492 -9.26738,4.86828 -0.002,0.13165 0.40778,0.91449 0.91093,1.73964 l 0.91483,1.50028 4.97748,-2.55342 c 2.73761,-1.40439 6.90303,-3.12711 9.25649,-3.82828 z m -93.97664,3.40763 c 6.21762,-3.35359 12.14316,-5.1527 17.85884,-5.42227 6.75497,-0.3186 12.37021,1.12196 18.52958,4.75366 1.26882,0.74812 2.46645,1.36022 2.6614,1.36022 0.3407,0 1.99709,-2.51509 1.99709,-3.03242 0,-0.55548 -7.17761,-4.16098 -10.77152,-5.41081 -3.46686,-1.20564 -4.46516,-1.33359 -10.53215,-1.34986 -5.58277,-0.015 -7.32985,0.16361 -10.4594,1.0691 -3.65871,1.05859 -12.59832,5.0519 -14.35039,6.4103 -0.84496,0.65509 -0.84496,0.7263 0,2.21037 0.48019,0.84341 0.92898,1.53484 0.99731,1.5365 0.0683,10e-4 1.89949,-0.95449 4.06924,-2.12479 z"
                id="path3581"
                transform="scale(0.26458333)" />
            <path
                style="fill:#ffe6d5;stroke:#ffe6d5;stroke-width:0.89474"
                d="m 258.97739,442.06729 c -5.70768,-2.02657 -8.52884,-7.69231 -5.84282,-11.73414 4.74233,-7.13613 19.02582,-3.20681 19.02582,5.23391 0,5.15498 -7.10501,8.65829 -13.183,6.50023 z"
                id="path3652"
                transform="scale(0.26458333)" />
            <path
                style="fill:#ffe6d5;stroke:#ffe6d5;stroke-width:0.89474"
                d="m 445.44778,440.31577 c -1.17271,-0.59244 -2.63785,-1.83116 -3.25587,-2.75272 -2.35102,-3.50571 -0.38932,-8.49683 4.27877,-10.88642 4.53854,-2.32328 9.19451,-1.83791 12.56959,1.31034 1.85602,1.73127 1.98075,2.0128 1.98075,4.47058 0,2.20272 -0.23394,2.9177 -1.46021,4.46264 -3.29123,4.14657 -9.6148,5.66801 -14.11303,3.39558 z"
                id="path3654"
                transform="scale(0.26458333)" />
            <path
                style="fill:#5599ff;stroke:#5599ff;stroke-width:0.534868"
                d="m 419.37115,401.62053 c -9.08398,-14.36934 -16.5907,-26.25031 -16.6816,-26.40214 -0.12031,-0.20096 1.63801,-0.42399 6.46291,-0.81977 3.6455,-0.29904 7.92076,-0.69613 9.50059,-0.88243 1.57982,-0.1863 3.25855,-0.33967 3.7305,-0.34081 l 0.8581,-0.002 15.95744,23.33334 c 8.77659,12.83333 15.95744,23.4203 15.95744,23.52659 0,0.10629 -4.27243,1.85889 -9.49429,3.89467 -5.22185,2.03577 -9.55739,3.72781 -9.63452,3.76006 -0.0771,0.0323 -7.57259,-11.69808 -16.65657,-26.06743 z"
                id="path3729"
                transform="scale(0.26458333)" />
            <path
                style="fill:#5599ff;stroke:#5599ff;stroke-width:0.534868"
                d="m 267.03716,425.31385 c -5.31917,-2.08008 -9.71814,-3.8289 -9.7755,-3.88626 -0.0574,-0.0574 7.07367,-10.83033 15.84674,-23.93993 14.5915,-21.80407 16.00613,-23.83559 16.59746,-23.83519 0.35553,2.5e-4 2.10058,0.15377 3.87788,0.34116 1.7773,0.1874 5.65505,0.51603 8.61722,0.7303 2.96216,0.21427 5.82515,0.46468 6.36219,0.55647 l 0.97644,0.16689 -16.29593,26.72991 c -8.96276,14.70145 -16.34979,26.77237 -16.41562,26.82426 -0.0658,0.0519 -4.47172,-1.60754 -9.79088,-3.68761 z"
                id="path3731"
                transform="scale(0.26458333)" />
            <path
                style="fill:#e3dbdb;stroke:none;stroke-width:2.2476"
                d="m 399.392,511.27603 -10.09838,-15.45653 -14.5562,-0.45276 c -8.00591,-0.24901 -23.13156,-0.4535 -33.61257,-0.45441 l -19.05637,-0.002 -9.65256,15.58027 c -5.30891,8.56915 -9.76891,15.46392 -9.91112,15.32171 -0.4338,-0.4338 -14.34481,-64.38496 -14.06602,-64.66375 0.20798,-0.20798 133.58936,-1.25112 134.19813,-1.04953 0.23332,0.0773 -12.58969,66.07635 -12.89792,66.38458 -0.13674,0.13674 -4.79288,-6.70683 -10.34699,-15.20792 z"
                id="path3802"
                transform="scale(0.26458333)" />
        </g>
        <g
            id="g1353"
            inkscape:label="barette"
            transform="matrix(1.482852,0,0,1.5255066,-72.008555,-12.913954)">
            <path
                style="fill:none;stroke:#000000;stroke-width:0.393087"
                d="m 137.62991,38.774476 c 0,0 4.97439,-4.971886 3.45472,-6.143166 -14.90759,-11.489933 -55.980815,-4.318661 -59.388325,0.623619 -1.09797,1.592501 4.96228,5.472513 3.50011,6.635833"
                id="path1344"
                sodipodi:nodetypes="cssc" />
            <path
                style="fill:none;stroke:#000000;stroke-width:0.393087"
                d="m 85.591055,39.725679 -4.72535,1.267572 42.154235,-0.889362 14.53146,-1.356964"
                id="path1346"
                sodipodi:nodetypes="cccc" />
            <path
                style="fill:none;stroke:#000000;stroke-width:0.360988"
                d="M 85.307995,39.771523 C 104.00498,35.634458 120.64616,37.655143 137.6671,38.538335"
                id="path1348"
                sodipodi:nodetypes="cc" />
            <ellipse
                style="fill:none;stroke:#000000;stroke-width:0.41504"
                id="path1395"
                cx="111.45473"
                cy="25.611897"
                rx="1.6845456"
                ry="0.94979405" />
            <path
                style="fill:#d35f5f;stroke:#d35f5f;stroke-width:0.266133"
                d="m 110.56164,26.103158 c -0.91223,-0.458905 -0.35967,-1.134337 0.93314,-1.14063 0.65835,-0.0032 1.26358,0.295104 1.33739,0.659173 0.10379,0.511951 -1.52384,0.857083 -2.27053,0.481457 z"
                id="path3500" />
            <path
                style="fill:#d35f5f;stroke:#d35f5f;stroke-width:0.133066"
                d="m 85.623273,39.219564 c -0.08703,-0.529061 -0.542195,-1.173058 -1.889106,-2.67285 -1.37323,-1.529099 -1.840391,-2.19215 -1.932272,-2.742525 -0.04589,-0.274856 0.113054,-0.535894 0.541702,-0.889674 2.744945,-2.265511 12.025264,-4.643315 22.140673,-5.672884 1.38689,-0.141161 3.65969,-0.31974 5.38276,-0.422936 1.69509,-0.10152 8.65224,-0.102446 10.14737,-0.0014 4.61421,0.311997 8.04905,0.816762 11.31622,1.662972 3.65466,0.946568 6.78032,2.30463 9.07016,3.940865 0.7318,0.522916 0.79534,0.622649 0.70521,1.106936 -0.16416,0.882117 -1.40535,2.699537 -3.03678,4.446616 l -0.3373,0.361205 -2.04854,-0.116994 c -1.1267,-0.06435 -3.74732,-0.222287 -5.82361,-0.350979 -9.33374,-0.578526 -12.84847,-0.735455 -17.90889,-0.799613 -9.09731,-0.115339 -17.531669,0.604368 -24.908612,2.12546 -1.532692,0.316035 -1.371712,0.313112 -1.418985,0.02575 z"
                id="path3502" />
            <path
                style="fill:#d35f5f;stroke:#d35f5f;stroke-width:0.133066"
                d="m 82.838374,40.710798 c 0.251826,-0.104494 3.103552,-0.844729 3.955474,-1.02674 3.125203,-0.667694 7.33116,-1.30327 10.811779,-1.633804 4.477873,-0.425235 7.502193,-0.557464 12.714413,-0.555893 5.76763,0.0017 8.1039,0.09761 19.87846,0.815739 2.89379,0.176492 5.40798,0.323599 5.5871,0.326906 0.17911,0.0033 -2.55546,0.279574 -6.07684,0.613931 -7.24264,0.68769 -5.91476,0.618023 -15.61366,0.819177 -2.37527,0.04926 -6.15335,0.128557 -8.39574,0.176207 -2.24239,0.04765 -7.882329,0.164695 -12.533207,0.260094 -4.650875,0.0954 -8.891026,0.186127 -9.422555,0.201615 -0.53153,0.01549 -0.938879,0.01674 -0.905224,0.0028 z"
                id="path3504" />
        </g>
    </g>
</svg>
