<?xml version="1.0" encoding="UTF-8" standalone="no"?>
<!-- Created with Inkscape (http://www.inkscape.org/) -->

<svg
   width="369.3573mm"
   height="477.76587mm"
   viewBox="0 0 369.3573 477.76587"
   version="1.1"
   id="svg5"
   inkscape:export-filename="girly.svg"
   inkscape:export-xdpi="96"
   inkscape:export-ydpi="96"
   inkscape:version="1.2.2 (732a01da63, 2022-12-09)"
   sodipodi:docname="prototype2.svg"
   xml:space="preserve"
   xmlns:inkscape="http://www.inkscape.org/namespaces/inkscape"
   xmlns:sodipodi="http://sodipodi.sourceforge.net/DTD/sodipodi-0.dtd"
   xmlns="http://www.w3.org/2000/svg"
   xmlns:svg="http://www.w3.org/2000/svg"><sodipodi:namedview
     id="namedview7"
     pagecolor="#ffffff"
     bordercolor="#000000"
     borderopacity="0.25"
     inkscape:showpageshadow="2"
     inkscape:pageopacity="0.0"
     inkscape:pagecheckerboard="0"
     inkscape:deskcolor="#d1d1d1"
     inkscape:document-units="mm"
     showgrid="false"
     inkscape:zoom="0.70710678"
     inkscape:cx="3923.7355"
     inkscape:cy="4405.2752"
     inkscape:window-width="1920"
     inkscape:window-height="1009"
     inkscape:window-x="-8"
     inkscape:window-y="1042"
     inkscape:window-maximized="1"
     inkscape:current-layer="g2039"
     showguides="true" /><defs
     id="defs2" /><g
     inkscape:label="Layer 1"
     inkscape:groupmode="layer"
     id="layer1"
     transform="translate(-1370.1878,-1165.2099)"><g
       id="g23598"
       inkscape:label="glass"><ellipse
         style="fill:#aaeeff;stroke:#000000;stroke-width:6.21083"
         id="path23003"
         cx="1554.3326"
         cy="1442.8278"
         rx="159.39954"
         ry="28.437477" /><path
         style="fill:none;stroke:#000000;stroke-width:6.21083"
         d="m 1373.284,1187.1628 30.7046,400.8355 92.1916,51.8713 119.026,-0.091 87.6858,-54.8491 33.4128,-399.0509"
         id="path22913"
         sodipodi:nodetypes="cccccc" /><ellipse
         style="fill:none;stroke:#000000;stroke-width:6.21083"
         id="path22967"
         cx="1554.9636"
         cy="1189.0822"
         rx="181.476"
         ry="20.766842" /><path
         style="fill:none;stroke:#000000;stroke-width:6.21083"
         d="m 1403.35,1587.5 c 1.7617,-108.7303 -19.4121,-195.3435 6.2614,-230.7358 21.3554,-29.4395 37.8228,-8.7831 46.8339,7.027 24.4679,42.9286 14.9654,172.2605 18.0368,264.5344"
         id="path22969"
         sodipodi:nodetypes="cssc" /><path
         style="fill:none;stroke:#000000;stroke-width:6.21083"
         d="m 1704.4423,1586.61 c -1.7617,-108.7303 19.4121,-195.3435 -6.2614,-230.7358 -21.3554,-29.4395 -37.8228,-8.7831 -46.8339,7.027 -24.4679,42.9286 -14.9654,172.2605 -18.0368,264.5344"
         id="path22969-9"
         sodipodi:nodetypes="cssc" /><path
         style="fill:none;stroke:#000000;stroke-width:6.21083"
         d="m 1509.1833,1639.3583 c 1.1378,-133.1971 -13.588,-226.0766 10.8554,-262.8417 23.0974,-34.7406 57.2954,-29.1868 69.8669,4.5551 17.7763,47.7117 7.3446,148.5037 8.1777,258.2866"
         id="path22971"
         sodipodi:nodetypes="cssc" /><path
         style="fill:#d5f6ff;stroke:none;stroke-width:132.789"
         d="m 5433.4085,6056.1689 -113.1371,-64.1127 -1.2044,-78.5055 c -0.6624,-43.1781 -5.3861,-151.8464 -10.4971,-241.4853 -5.1109,-89.6389 -8.3873,-163.8702 -7.2809,-164.9585 1.1065,-1.0883 20.3028,4.1642 42.6583,11.6721 22.3556,7.508 73.2673,18.9703 113.1371,25.4718 39.8699,6.5015 78.2182,12.908 85.2185,14.2367 l 12.728,2.4158 v 279.9065 c 0,153.9486 -1.9092,279.8087 -4.2427,279.6892 -2.3334,-0.1194 -55.1543,-29.0681 -117.3797,-64.3301 z"
         id="path23508"
         transform="scale(0.26458333)" /><path
         style="fill:#d5f6ff;stroke:none;stroke-width:132.789"
         d="m 5625.7415,6163.9396 c -31.7566,-17.6529 -34.1872,-20.4701 -37.7644,-43.7732 -2.1029,-13.6982 -4.012,-145.4817 -4.2427,-292.8521 l -0.4193,-267.9461 12.728,3.4109 c 7.0003,1.8761 28.1456,3.4457 46.9894,3.4882 l 34.2615,0.077 6.8733,272.9432 c 9.3544,371.4694 10.0768,343.6688 -8.9283,343.5865 -8.556,-0.04 -30.8298,-8.5577 -49.4975,-18.9347 z"
         id="path23579"
         transform="scale(0.26458333)" /><path
         style="fill:#d5f6ff;stroke:none;stroke-width:132.789"
         d="m 5717.161,6008.9934 c -2.0591,-95.6715 -5.4163,-232.935 -7.4605,-305.0298 l -3.7167,-131.0816 165.673,0.047 165.6731,0.047 -3.4976,102.7506 c -1.9237,56.5128 -5.1442,193.7553 -7.1567,304.9831 l -3.6591,202.2326 h -151.0559 -151.0559 z"
         id="path23581"
         transform="scale(0.26458333)" /><path
         style="fill:#d5f6ff;stroke:none;stroke-width:132.789"
         d="m 6052.8127,6150.4148 c -0.07,-107.2404 12.9282,-576.2092 16.0557,-579.2737 2.0705,-2.0289 23.4929,-4.6239 47.6052,-5.7668 l 43.8407,-2.078 -0.1605,291.4379 -0.1604,291.4379 -30.3882,18.3848 c -21.1748,12.8107 -37.4197,18.3848 -53.5797,18.3848 h -23.1915 z"
         id="path23583"
         transform="scale(0.26458333)" /><path
         style="fill:#d5f6ff;stroke:none;stroke-width:132.789"
         d="m 6188.5985,5861.4892 c 0,-145.9954 1.5976,-273.4341 3.5503,-283.1972 2.4144,-12.0724 7.391,-18.4659 15.5563,-19.9857 6.6034,-1.229 44.6269,-7.554 84.4967,-14.0555 39.8699,-6.5015 90.7816,-17.9638 113.1371,-25.4718 22.3556,-7.5079 40.852,-13.2414 41.1031,-12.7411 0.2511,0.5003 -2.653,50.5486 -6.4537,111.2184 -3.8007,60.6697 -8.5579,159.9475 -10.5714,220.6173 -2.0136,60.6697 -4.8369,117.9666 -6.2741,127.3263 -2.3261,15.1496 -14.5061,24.4638 -110.9603,84.8528 -59.5911,37.3093 -111.7757,69.8708 -115.9657,72.3589 -6.3425,3.7662 -7.6183,-39.929 -7.6183,-260.9224 z"
         id="path23585"
         transform="scale(0.26458333)" /></g></g></svg>
