<?xml version="1.0" encoding="UTF-8" standalone="no"?>
<!-- Created with Inkscape (http://www.inkscape.org/) -->

<svg
   width="179.85303mm"
   height="262.88037mm"
   viewBox="0 0 179.85303 262.88037"
   version="1.1"
   id="svg5"
   inkscape:export-filename="girly.svg"
   inkscape:export-xdpi="96"
   inkscape:export-ydpi="96"
   inkscape:version="1.2.2 (732a01da63, 2022-12-09)"
   sodipodi:docname="prototype2.svg"
   xml:space="preserve"
   xmlns:inkscape="http://www.inkscape.org/namespaces/inkscape"
   xmlns:sodipodi="http://sodipodi.sourceforge.net/DTD/sodipodi-0.dtd"
   xmlns="http://www.w3.org/2000/svg"
   xmlns:svg="http://www.w3.org/2000/svg"><sodipodi:namedview
     id="namedview7"
     pagecolor="#ffffff"
     bordercolor="#000000"
     borderopacity="0.25"
     inkscape:showpageshadow="2"
     inkscape:pageopacity="0.0"
     inkscape:pagecheckerboard="0"
     inkscape:deskcolor="#d1d1d1"
     inkscape:document-units="mm"
     showgrid="false"
     inkscape:zoom="0.0625"
     inkscape:cx="10408"
     inkscape:cy="17136"
     inkscape:window-width="1680"
     inkscape:window-height="979"
     inkscape:window-x="98"
     inkscape:window-y="-8"
     inkscape:window-maximized="1"
     inkscape:current-layer="g4463-2"
     showguides="true" /><defs
     id="defs2" /><g
     inkscape:label="Layer 1"
     inkscape:groupmode="layer"
     id="layer1"
     transform="translate(-3818.5736,-1115.5313)"><g
       id="g5753-1-6-7"
       inkscape:label="girl-looking-straight"
       inkscape:export-filename="insu-learn\public\images\breath.svg"
       inkscape:export-xdpi="96"
       inkscape:export-ydpi="96"
       transform="matrix(2.2297202,0,0,2.3102662,3151.4536,1076.8547)"><path
         style="fill:#5599ff;stroke:#000000;stroke-width:0.64677"
         d="m 328.00481,82.764616 -14.962,25.148204 55.50019,-0.37233 -15.22379,-24.686506"
         id="path167-6-8-83-2-7"
         sodipodi:nodetypes="cccc"
         inkscape:export-filename="girly-svgs\girly-looking-straight.svg"
         inkscape:export-xdpi="96"
         inkscape:export-ydpi="96" /><path
         style="fill:none;stroke:#000000;stroke-width:0.960895"
         d="m 320.51373,108.01742 4.50637,21.06854 6.21456,-10.26939 18.43177,0.13827 6.6021,10.29811 4.04274,-21.36146"
         id="path265-9-1-2-0-6"
         sodipodi:nodetypes="cccccc" /><ellipse
         style="fill:none;stroke:#000000;stroke-width:0.540966"
         id="path467-7-2-4-1-7"
         cx="328.87442"
         cy="20.042427"
         rx="3.2564518"
         ry="2.7076981"
         transform="matrix(0.96907219,0.2467774,-0.24774673,0.96882483,0,0)" /><ellipse
         style="fill:none;stroke:#000000;stroke-width:0.540966"
         id="path467-1-5-5-3-2-5"
         cx="331.51288"
         cy="-187.86725"
         rx="3.2564518"
         ry="2.7076981"
         transform="matrix(0.96907219,-0.2467774,-0.24774673,-0.96882483,0,0)" /><path
         style="fill:none;stroke:#000000;stroke-width:0.64677"
         d="m 307.63474,42.453877 c 0,0 -0.7247,6.68557 -0.82961,8.384339 -0.43312,7.013626 -1.12255,25.316269 3.19829,28.572084 6.20549,4.675926 42.84968,4.719748 55.38885,1.828577 5.99452,-1.382163 7.16762,-7.572772 7.57189,-11.735806 0.28217,-2.905711 -0.44764,-14.512931 -0.64745,-22.87126 -0.10657,-4.458775 -1.72322,-6.810179 -1.72322,-6.810179"
         id="path1328-5-5-6-8-1"
         sodipodi:nodetypes="csssssc" /><path
         style="fill:#ffe6d5;stroke:#ffe6d5;stroke-width:0.258979"
         d="m 312.84207,102.75684 c -1.63223,-0.59371 -2.439,-2.25357 -1.67087,-3.43768 1.35616,-2.090627 5.44081,-0.939481 5.44081,1.53334 0,1.51023 -2.03181,2.53657 -3.76994,1.90434 z"
         id="path3652-2-3-4-8-5" /><path
         style="fill:#ffe6d5;stroke:#ffe6d5;stroke-width:0.258979"
         d="m 366.16704,102.2437 c -0.33536,-0.17356 -0.75434,-0.53646 -0.93108,-0.80644 -0.67232,-1.02705 -0.11134,-2.489267 1.2236,-3.189335 1.29788,-0.680636 2.62935,-0.538441 3.59452,0.383889 0.53078,0.507194 0.56644,0.589674 0.56644,1.309717 0,0.645319 -0.0669,0.854779 -0.41757,1.307389 -0.9412,1.21479 -2.74956,1.66052 -4.03591,0.99478 z"
         id="path3654-1-4-0-5-0" /><path
         style="fill:#5599ff;stroke:#5599ff;stroke-width:0.154815"
         d="m 358.70991,90.907397 c -2.59775,-4.209698 -4.74446,-7.690392 -4.77045,-7.734873 -0.0344,-0.05887 0.46842,-0.124214 1.8482,-0.240162 1.04251,-0.08761 2.2651,-0.203942 2.71689,-0.258521 0.45177,-0.05458 0.93185,-0.09951 1.06681,-0.09984 l 0.24539,-5.86e-4 4.56335,6.835824 c 2.50985,3.759703 4.56335,6.861302 4.56335,6.892442 0,0.03114 -1.22178,0.544593 -2.71508,1.140999 -1.49329,0.596406 -2.73313,1.092117 -2.75518,1.101562 -0.022,0.0089 -2.16554,-3.427117 -4.76328,-7.636818 z"
         id="path3729-7-2-5-8-9" /><path
         style="fill:#5599ff;stroke:#5599ff;stroke-width:0.154815"
         d="m 315.14692,97.84869 c -1.52112,-0.609395 -2.7791,-1.121735 -2.7955,-1.13854 -0.0164,-0.01682 2.02286,-3.172896 4.5317,-7.013534 4.17273,-6.387805 4.57728,-6.982967 4.74637,-6.98285 0.10171,7.4e-5 0.60071,0.04504 1.10896,0.09994 0.50826,0.0549 1.61718,0.151178 2.46427,0.213951 0.84708,0.06277 1.66581,0.136135 1.8194,0.163026 l 0.27923,0.0489 -4.66016,7.830898 c -2.56307,4.306993 -4.67555,7.843343 -4.69437,7.858535 -0.0188,0.01517 -1.27878,-0.470942 -2.7999,-1.080325 z"
         id="path3731-4-4-0-2-8" /><path
         style="fill:#e3dbdb;stroke:none;stroke-width:0.650559"
         d="m 352.99646,123.0325 -2.88784,-4.5282 -4.16264,-0.13265 c -2.28945,-0.073 -6.61493,-0.13285 -9.61219,-0.13312 l -5.44955,-5.8e-4 -2.76035,4.56445 c -1.51818,2.51045 -2.79362,4.53037 -2.83428,4.4887 -0.12406,-0.12708 -4.10219,-18.86246 -4.02247,-18.94414 0.0595,-0.0609 38.20258,-0.36653 38.37667,-0.30748 0.0667,0.0226 -3.60027,19.35799 -3.68842,19.44829 -0.0391,0.0401 -1.37062,-1.96486 -2.95893,-4.45537 z"
         id="path3802-2-6-9-2-0" /><path
         style="fill:#ffe6d5;stroke:none;stroke-width:0.460014"
         d="m 330.80359,82.627075 c -11.43207,-0.537533 -19.01284,-1.953435 -20.92012,-3.907367 -1.36952,-1.403013 -2.3589,-5.190942 -2.74882,-10.5241 -0.262,-3.583381 -0.30874,-6.247237 -0.15505,-8.835863 0.0847,-1.427062 0.23309,-4.377751 0.32969,-6.557082 0.0966,-2.179336 0.20451,-3.992012 0.23981,-4.028168 0.0352,-0.03615 0.37884,-6.773598 0.33402,-7.81391 -0.20635,-4.789089 2.33371,-5.513098 10.1041,-8.601171 6.90324,-2.743461 25.537,-3.187611 31.71316,-1.960801 l 4.74816,0.943157 1.3545,0.201369 c 4.11738,0.61211 7.52696,1.788234 10.16835,3.507537 0.42318,0.27545 1.29673,1.045549 1.94122,1.71133 1.71695,1.773671 2.64112,3.495276 3.34912,6.238994 0.63625,2.465689 0.75787,4.05341 0.88775,11.590184 0.11622,6.744037 0.20486,8.430775 0.56623,10.775635 0.19237,1.248369 0.0814,4.347165 -0.21781,6.078555 -0.29705,1.719226 -0.82471,3.351785 -1.55148,4.800184 -1.10166,2.195512 -3.03125,3.846155 -5.2324,4.475977 -2.94765,0.843426 -9.55616,1.567569 -17.52366,1.920194 -3.57341,0.158151 -13.89666,0.149453 -17.38677,-0.01465 z"
         id="path4686-1-39-6-1"
         sodipodi:nodetypes="ssssssssscssssssssssss" /><g
         id="g5020-9-3-2-5"
         inkscape:label="rightEye"
         transform="matrix(1.0808322,0,0,1.107265,238.78226,-26.752906)"><ellipse
           style="fill:#ffffff;stroke:#000000;stroke-width:0.878356"
           id="path4613-1-0-1-3"
           cx="83.718704"
           cy="72.680603"
           rx="6.3266478"
           ry="7.8117156" /><ellipse
           style="fill:#004455;stroke:none;stroke-width:0.796377"
           id="path4932-7-2-6-5"
           cx="83.886459"
           cy="73.26783"
           rx="4.1375828"
           ry="4.5447488" /><ellipse
           style="fill:#000000;stroke:none;stroke-width:1.30372"
           id="path4956-2-2-5-6"
           cx="83.89669"
           cy="72.375999"
           rx="1.997202"
           ry="2.308032" /></g><g
         id="g5015-7-41-8-4"
         inkscape:label="leftEye"
         transform="matrix(1.0808322,0,0,1.107265,238.78226,-26.752906)"><ellipse
           style="fill:#ffffff;stroke:#000000;stroke-width:0.878356"
           id="path4613-8-0-1-6-1"
           cx="104.29748"
           cy="72.5616"
           rx="6.3266478"
           ry="7.8117156" /><ellipse
           style="fill:#004455;stroke:none;stroke-width:0.796377"
           id="path4932-8-9-8-3-5"
           cx="104.2861"
           cy="72.969696"
           rx="4.1375828"
           ry="4.5447488" /><ellipse
           style="fill:#000000;stroke:none;stroke-width:1.30372"
           id="path4956-1-1-95-4-7"
           cx="104.29633"
           cy="72.256996"
           rx="1.997202"
           ry="2.308032" /></g><ellipse
         style="fill:#ff8080;stroke:none;stroke-width:0.960894"
         id="path5074-2-6-9-5"
         cx="340.23065"
         cy="64.779053"
         rx="2.7350144"
         ry="1.9831049" /><g
         id="g1353-8-2-5-9-6"
         inkscape:label="barette"
         transform="matrix(1.3276537,0,0,1.5620779,191.90047,-21.458725)"
         inkscape:export-filename="girly-svgs\barette.svg"
         inkscape:export-xdpi="96"
         inkscape:export-ydpi="96"><path
           style="fill:#000000;stroke:#000000;stroke-width:0.393087"
           d="m 137.62991,38.774476 c 0,0 4.97439,-4.971886 3.45472,-6.143166 -14.90759,-11.489933 -55.980815,-4.318661 -59.388325,0.623619 -1.09797,1.592501 4.96228,5.472513 3.50011,6.635833"
           id="path1344-4-1-34-7-9"
           sodipodi:nodetypes="cssc" /><path
           style="fill:#000000;stroke:#000000;stroke-width:0.393087"
           d="m 85.591055,39.725679 -4.72535,1.267572 42.154235,-0.889362 14.53146,-1.356964"
           id="path1346-0-1-2-9-9"
           sodipodi:nodetypes="cccc" /><path
           style="fill:#000000;stroke:#000000;stroke-width:0.360988"
           d="M 85.307995,39.771523 C 104.00498,35.634458 120.64616,37.655143 137.6671,38.538335"
           id="path1348-9-7-2-6-9"
           sodipodi:nodetypes="cc" /><ellipse
           style="fill:#000000;stroke:#000000;stroke-width:0.41504"
           id="path1395-1-9-8-1-6"
           cx="111.45473"
           cy="25.611897"
           rx="1.6845456"
           ry="0.94979405" /><path
           style="fill:#d35f5f;stroke:#d35f5f;stroke-width:0.266133"
           d="m 110.56164,26.103158 c -0.91223,-0.458905 -0.35967,-1.134337 0.93314,-1.14063 0.65835,-0.0032 1.26358,0.295104 1.33739,0.659173 0.10379,0.511951 -1.52384,0.857083 -2.27053,0.481457 z"
           id="path3500-7-2-2-3-6" /><path
           style="fill:#d35f5f;stroke:#d35f5f;stroke-width:0.133066"
           d="m 85.623273,39.219564 c -0.08703,-0.529061 -0.542195,-1.173058 -1.889106,-2.67285 -1.37323,-1.529099 -1.840391,-2.19215 -1.932272,-2.742525 -0.04589,-0.274856 0.113054,-0.535894 0.541702,-0.889674 2.744945,-2.265511 12.025264,-4.643315 22.140673,-5.672884 1.38689,-0.141161 3.65969,-0.31974 5.38276,-0.422936 1.69509,-0.10152 8.65224,-0.102446 10.14737,-0.0014 4.61421,0.311997 8.04905,0.816762 11.31622,1.662972 3.65466,0.946568 6.78032,2.30463 9.07016,3.940865 0.7318,0.522916 0.79534,0.622649 0.70521,1.106936 -0.16416,0.882117 -1.40535,2.699537 -3.03678,4.446616 l -0.3373,0.361205 -2.04854,-0.116994 c -1.1267,-0.06435 -3.74732,-0.222287 -5.82361,-0.350979 -9.33374,-0.578526 -12.84847,-0.735455 -17.90889,-0.799613 -9.09731,-0.115339 -17.531669,0.604368 -24.908612,2.12546 -1.532692,0.316035 -1.371712,0.313112 -1.418985,0.02575 z"
           id="path3502-4-7-21-0-9" /><path
           style="fill:#d35f5f;stroke:#d35f5f;stroke-width:0.133066"
           d="m 82.838374,40.710798 c 0.251826,-0.104494 3.103552,-0.844729 3.955474,-1.02674 3.125203,-0.667694 7.33116,-1.30327 10.811779,-1.633804 4.477873,-0.425235 7.502193,-0.557464 12.714413,-0.555893 5.76763,0.0017 8.1039,0.09761 19.87846,0.815739 2.89379,0.176492 5.40798,0.323599 5.5871,0.326906 0.17911,0.0033 -2.55546,0.279574 -6.07684,0.613931 -7.24264,0.68769 -5.91476,0.618023 -15.61366,0.819177 -2.37527,0.04926 -6.15335,0.128557 -8.39574,0.176207 -2.24239,0.04765 -7.882329,0.164695 -12.533207,0.260094 -4.650875,0.0954 -8.891026,0.186127 -9.422555,0.201615 -0.53153,0.01549 -0.938879,0.01674 -0.905224,0.0028 z"
           id="path3504-4-0-5-3-0" /></g><path
         style="fill:none;stroke:#000000;stroke-width:0.431086"
         d="m 321.5621,82.385828 -9.18845,14.297176 6.16067,2.594655 9.58327,-16.339333 z"
         id="path604-0-7-0"
         sodipodi:nodetypes="ccccc" /><path
         style="fill:none;stroke:#000000;stroke-width:0.431086"
         d="m 359.65417,82.202457 9.43854,14.181742 -5.80834,2.280977 -10.01936,-15.86768 z"
         id="path714-4-8-8" /><g
         id="g1353-8-2-0-8-2-7"
         inkscape:label="barette"
         transform="matrix(1.482852,0,0,1.5255066,158.36096,557.05095)"
         inkscape:export-filename="girly-svgs\barette.svg"
         inkscape:export-xdpi="96"
         inkscape:export-ydpi="96" /></g></g></svg>
