<?xml version="1.0" encoding="UTF-8" standalone="no"?>
<!-- Created with Inkscape (http://www.inkscape.org/) -->

<svg
   width="163.40068mm"
   height="316.58154mm"
   viewBox="0 0 163.40068 316.58154"
   version="1.1"
   id="svg5"
   inkscape:export-filename="girly.svg"
   inkscape:export-xdpi="96"
   inkscape:export-ydpi="96"
   inkscape:version="1.2.2 (732a01da63, 2022-12-09)"
   sodipodi:docname="prototype2.svg"
   xml:space="preserve"
   xmlns:inkscape="http://www.inkscape.org/namespaces/inkscape"
   xmlns:sodipodi="http://sodipodi.sourceforge.net/DTD/sodipodi-0.dtd"
   xmlns="http://www.w3.org/2000/svg"
   xmlns:svg="http://www.w3.org/2000/svg"><sodipodi:namedview
     id="namedview7"
     pagecolor="#ffffff"
     bordercolor="#000000"
     borderopacity="0.25"
     inkscape:showpageshadow="2"
     inkscape:pageopacity="0.0"
     inkscape:pagecheckerboard="0"
     inkscape:deskcolor="#d1d1d1"
     inkscape:document-units="mm"
     showgrid="false"
     inkscape:zoom="0.0625"
     inkscape:cx="10408"
     inkscape:cy="17136"
     inkscape:window-width="1680"
     inkscape:window-height="979"
     inkscape:window-x="98"
     inkscape:window-y="-8"
     inkscape:window-maximized="1"
     inkscape:current-layer="g4463-2"
     showguides="false"><sodipodi:guide
       position="-65.972862,-2306.4098"
       orientation="-0.70710678,-0.70710678"
       id="guide18006"
       inkscape:locked="false" /></sodipodi:namedview><defs
     id="defs2" /><g
     inkscape:label="Layer 1"
     inkscape:groupmode="layer"
     id="layer1"
     transform="translate(-24.065003,-2390.985)"><g
       id="g7594"
       inkscape:label="pump"
       transform="matrix(0.75782888,-0.01407322,0.00840358,0.75466648,-752.53898,737.18641)"
       inkscape:export-filename="insu-learn\public\images\insulinPump.svg"
       inkscape:export-xdpi="96"
       inkscape:export-ydpi="96"><path
         style="fill:none;stroke:#5599ff;stroke-width:17.0616"
         id="path7460"
         d="m 1040.9618,2329.7339 c -0.085,-3.8331 -0.5442,-7.6515 -0.9239,-11.464 -0.7844,-8.1964 -1.3763,-16.409 -2.0045,-24.6182 -0.6702,-6.1372 -1.3139,-12.2705 -1.6575,-18.4358 -0.1408,-4.0231 -0.018,-8.0745 0.4923,-12.0711 0.2928,-2.2924 0.6843,-4.2552 1.1005,-6.5255 0.5554,-2.8427 1.2615,-5.6529 2.0748,-8.4322 0.3823,-1.3063 1.105,-3.685 1.624,-4.9278 0.4019,-0.9625 0.8947,-1.8843 1.3421,-2.8264 2.9647,-5.2406 7.0433,-9.7564 11.5668,-13.6999 0.8035,-0.7004 1.6475,-1.3528 2.4712,-2.0292 2.8607,-2.0584 6.1,-4.4638 9.7455,-4.7966 0.5021,-0.046 1.0083,0 1.5125,0 0.4748,0.093 0.9637,0.1315 1.4242,0.2797 3.1277,1.0058 5.5635,3.8779 7.6597,6.244 2.1101,2.4051 3.9346,5.0368 5.3832,7.8912 0.8641,1.7026 1.2384,2.6916 1.9737,4.4532 2.0193,5.2126 3.5161,10.6081 4.7774,16.0481 1.1233,4.8693 1.5672,9.8317 1.7993,14.8102 0.2042,6.7499 0.4884,13.4976 0.8205,20.2423 0.3377,7.3865 1.1018,14.7509 2.5312,22.0068 0.8332,3.6345 1.8778,7.2598 3.6601,10.5561 0.3012,0.557 0.6466,1.089 0.9699,1.6335 1.3228,2.0029 2.8357,4.0387 4.9219,5.3144 0.3619,0.2213 0.7559,0.3853 1.1339,0.5778 0.9774,0.3387 1.5015,0.585 2.5477,0.6836 2.0946,0.1976 4.1981,-0.4205 6.1985,-0.9454 1.9416,-0.6414 3.9751,-1.1406 5.7856,-2.1235 0.9127,-0.4955 1.6153,-1.053 2.4525,-1.6643 2.3569,-1.7096 4.4211,-3.7654 6.1029,-6.1378 1.5148,-2.3602 2.0123,-5.1334 2.3675,-7.8675 0.2786,-2.51 0.2482,-5.0516 -0.083,-7.5535 -0.1941,-1.6958 -0.6495,-3.3393 -1.084,-4.984 -0.042,-0.1771 -0.083,-0.3542 -0.125,-0.5313 v 0 0 c 0.042,0.1771 0.083,0.3542 0.125,0.5313 0.4345,1.6447 0.8899,3.2882 1.084,4.984 0.3311,2.5019 0.3615,5.0435 0.083,7.5535 -0.3552,2.7341 -0.8527,5.5072 -2.3675,7.8674 -1.6817,2.3724 -3.7459,4.4282 -6.1028,6.1378 -0.8372,0.6114 -1.5398,1.1688 -2.4525,1.6643 -1.8106,0.9829 -3.844,1.4821 -5.7857,2.1235 -2.0003,0.5249 -4.1038,1.143 -6.1984,0.9454 -1.0462,-0.099 -1.1025,-0.8126 -2.08,-1.1513 -0.3774,-0.1923 -1.2386,0.1118 -1.5999,-0.1092 -2.0862,-1.2758 -3.5992,-3.3114 -4.922,-5.3144 -0.3233,-0.5445 -0.6687,-1.0765 -0.9699,-1.6335 -1.7823,-3.2963 -2.8269,-6.9216 -3.6601,-10.5561 -1.4295,-7.2559 -2.1936,-14.6203 -2.5312,-22.0068 -0.3322,-6.7447 -0.6163,-13.4924 -0.8205,-20.2422 -0.2321,-4.9786 -0.676,-9.941 -1.7993,-14.8102 -1.2613,-5.44 -2.7582,-10.8356 -4.7774,-16.0482 -0.7353,-1.7616 -1.1096,-2.7507 -1.9737,-4.4532 -1.4486,-2.8544 -3.2731,-5.4861 -5.3832,-7.8912 -2.0967,-2.3667 -4.5329,-5.239 -7.6612,-6.245 -0.4606,-0.1481 -0.856,0.141 -1.3307,0.048 -0.5043,0 -1.104,-0.3754 -1.6061,-0.3274 -3.6455,0.3328 -6.8848,2.7382 -9.7454,4.7966 -0.8238,0.6765 -1.6678,1.3289 -2.4712,2.0293 -4.5236,3.9435 -8.6022,8.4592 -11.5669,13.6998 -0.4474,0.9422 -0.9402,1.864 -1.3421,2.8265 -0.519,1.2428 -1.2417,3.6214 -1.624,4.9278 -0.8133,2.7793 -1.5194,5.5895 -2.0748,8.4322 -0.4162,2.2701 -0.8077,4.2333 -1.1005,6.5255 -0.5105,3.9967 -0.6332,8.048 -0.4924,12.0711 0.3437,6.1653 0.9874,12.2986 1.6576,18.4358 0.6282,8.2093 1.2202,16.4219 2.0045,24.6183 0.3797,3.8124 0.839,7.6308 0.9238,11.4639 v 0 z"
         sodipodi:nodetypes="scccscsscscscccscccccscscscscccccscscccccscscscscccccscscccscsscscccscs" /><rect
         style="fill:#0055d4;stroke:none;stroke-width:5.56826"
         id="rect3603"
         width="38.88596"
         height="10.054167"
         x="1018.8274"
         y="2319.001"
         ry="2.9691348" /><rect
         style="fill:#000080;stroke:#000000;stroke-width:4.49727"
         id="rect3235"
         width="76.357819"
         height="300.8642"
         x="1000.9116"
         y="2326.9961"
         ry="27.925261" /><rect
         style="fill:#000080;stroke:none;stroke-width:5.27127"
         id="rect3289"
         width="166.88309"
         height="240.9702"
         x="1040.9613"
         y="2386.5029"
         ry="24.183487" /><path
         style="fill:none;stroke:#000000;stroke-width:5.23693"
         d="m 1050.5934,2627.6706 138.4441,0.7002 c 10.9731,-2.3803 18.7208,-8.6774 19.8437,-23.0187 l -0.2645,-198.4375 c -2.5253,-9.9034 -5.0759,-19.7931 -22.7542,-21.4313 l -110.6468,0.1711"
         id="path3446"
         sodipodi:nodetypes="cccccc" /><ellipse
         style="fill:#80b3ff;stroke:none;stroke-width:5.23692"
         id="path6877"
         cx="1038.225"
         cy="2441.0459"
         rx="23.8125"
         ry="23.283333" /><ellipse
         style="fill:#80b3ff;stroke:none;stroke-width:5.23692"
         id="path6877-3"
         cx="1039.2834"
         cy="2496.0793"
         rx="23.8125"
         ry="23.283333" /><ellipse
         style="fill:#80b3ff;stroke:none;stroke-width:5.23692"
         id="path6877-1"
         cx="1040.8708"
         cy="2551.1125"
         rx="23.8125"
         ry="23.283333" /><ellipse
         style="fill:#ffffff;stroke:#5599ff;stroke-width:17.0616"
         id="path7515"
         cx="1154.5503"
         cy="2290.575"
         rx="41.159508"
         ry="40.411152" /><ellipse
         style="fill:#ffffff;stroke:#5599ff;stroke-width:13.7571"
         id="path7569"
         cx="1154.6333"
         cy="2290.8848"
         rx="22.726765"
         ry="21.933014" /><path
         style="fill:#ffdd55;stroke:#000000;stroke-width:0.152375"
         d="m 1093.9577,2602.7337 c -7.2543,-3.7402 -13.1438,-6.8435 -13.0865,-6.8968 0.095,-0.09 6.0007,-2.7018 13.2054,-5.8852 l 13.0998,-5.7897 0.056,7.9157 c 0.063,4.3543 0.021,10.0626 0,12.6856 l -0.034,4.7699 z"
         id="path13839-7-7" /><path
         style="fill:#ffdd55;stroke:#000000;stroke-width:0.152375"
         d="m 1158.4567,2603.0323 c 7.2543,-3.7402 13.1438,-6.8435 13.0865,-6.8968 -0.095,-0.09 -6.0007,-2.7018 -13.2054,-5.8852 l -13.0998,-5.7897 -0.056,7.9157 c -0.063,4.3543 -0.021,10.0626 0,12.6856 l 0.034,4.7699 z"
         id="path13839-7-7-3" /><rect
         style="fill:#80b3ff;stroke:#ffffff;stroke-width:3.51342"
         id="rect7084"
         width="106.3625"
         height="163.5125"
         x="1078.9708"
         y="2412.4707"
         ry="2.9691348" /></g></g></svg>
