<?xml version="1.0" encoding="UTF-8" standalone="no"?>
<!-- Created with Inkscape (http://www.inkscape.org/) -->

<svg
   width="97.497467mm"
   height="101.32373mm"
   viewBox="0 0 97.497467 101.32373"
   version="1.1"
   id="svg5"
   inkscape:export-filename="girly.svg"
   inkscape:export-xdpi="96"
   inkscape:export-ydpi="96"
   inkscape:version="1.2.2 (732a01da63, 2022-12-09)"
   sodipodi:docname="prototype2.svg"
   xml:space="preserve"
   xmlns:inkscape="http://www.inkscape.org/namespaces/inkscape"
   xmlns:sodipodi="http://sodipodi.sourceforge.net/DTD/sodipodi-0.dtd"
   xmlns="http://www.w3.org/2000/svg"
   xmlns:svg="http://www.w3.org/2000/svg"><sodipodi:namedview
     id="namedview7"
     pagecolor="#ffffff"
     bordercolor="#000000"
     borderopacity="0.25"
     inkscape:showpageshadow="2"
     inkscape:pageopacity="0.0"
     inkscape:pagecheckerboard="0"
     inkscape:deskcolor="#d1d1d1"
     inkscape:document-units="mm"
     showgrid="false"
     inkscape:zoom="0.0625"
     inkscape:cx="10408"
     inkscape:cy="17136"
     inkscape:window-width="1680"
     inkscape:window-height="979"
     inkscape:window-x="98"
     inkscape:window-y="-8"
     inkscape:window-maximized="1"
     inkscape:current-layer="g4463-2"
     showguides="true" /><defs
     id="defs2" /><g
     inkscape:label="Layer 1"
     inkscape:groupmode="layer"
     id="layer1"
     transform="translate(-145.98445,-2842.5568)"><g
       id="g4152-1-3"
       inkscape:label="tablets"
       transform="matrix(-0.47860871,0.41965715,-0.51711406,-0.58985636,1653.4,2232.5261)"
       inkscape:export-filename="insu-learn\public\images\medicamentCrossed.svg"
       inkscape:export-xdpi="96"
       inkscape:export-ydpi="96"><rect
         style="fill:#b7bec8;stroke:none;stroke-width:1.4247"
         id="rect2334-6-1"
         width="79.821426"
         height="116.97635"
         x="2367.4731"
         y="534.1701"
         ry="2.0585058" /><g
         id="g3136-49-3"
         inkscape:label="pill"
         transform="matrix(0.41541679,0,0,0.44287285,1386.3958,291.58072)"><rect
           style="fill:#ff0000;stroke:none;stroke-width:1.37784"
           id="rect2754-2-3"
           width="60.799244"
           height="18.239773"
           x="2384.5972"
           y="563.91296"
           ry="9.1198864" /><path
           style="fill:#ffffff;stroke:#ffffff;stroke-width:1.29686"
           d="m 2415.7641,563.83589 0.024,18.40649"
           id="path3006-03-2" /><path
           style="fill:#ffffff;stroke:#ffffff;stroke-width:0.881427"
           d="m 9133.0823,2181.1868 c -10e-5,-10.4496 -0.051,-25.9113 -0.1126,-34.3594 l -0.1124,-15.3602 h 38.8348 c 26.0371,0 39.3074,0.059 40.269,0.1773 8.9343,1.1044 17.0533,5.5438 22.6246,12.3711 10.0636,12.3321 10.3518,29.9652 0.6975,42.6685 -4.7508,6.2511 -12.0764,10.9451 -19.7409,12.6493 -3.9116,0.8697 -3.0248,0.8526 -44.1642,0.8526 h -38.2957 z"
           id="path3131-39-5"
           transform="scale(0.26458333)" /></g><g
         id="g3136-1-0-0"
         inkscape:label="pill"
         transform="matrix(0.41541679,0,0,0.44287285,1386.4153,304.66206)"><rect
           style="fill:#ff0000;stroke:none;stroke-width:1.37784"
           id="rect2754-5-2-9"
           width="60.799244"
           height="18.239773"
           x="2384.5972"
           y="563.91296"
           ry="9.1198864" /><path
           style="fill:#ffffff;stroke:#ffffff;stroke-width:1.29686"
           d="m 2415.7641,563.83589 0.024,18.40649"
           id="path3006-4-0-2" /><path
           style="fill:#ffffff;stroke:#ffffff;stroke-width:0.881427"
           d="m 9133.0823,2181.1868 c -10e-5,-10.4496 -0.051,-25.9113 -0.1126,-34.3594 l -0.1124,-15.3602 h 38.8348 c 26.0371,0 39.3074,0.059 40.269,0.1773 8.9343,1.1044 17.0533,5.5438 22.6246,12.3711 10.0636,12.3321 10.3518,29.9652 0.6975,42.6685 -4.7508,6.2511 -12.0764,10.9451 -19.7409,12.6493 -3.9116,0.8697 -3.0248,0.8526 -44.1642,0.8526 h -38.2957 z"
           id="path3131-3-8-1"
           transform="scale(0.26458333)" /></g><g
         id="g3136-9-8-3"
         inkscape:label="pill"
         transform="matrix(0.41541679,0,0,0.44287285,1421.2334,291.54528)"><rect
           style="fill:#ff0000;stroke:none;stroke-width:1.37784"
           id="rect2754-3-9-6"
           width="60.799244"
           height="18.239773"
           x="2384.5972"
           y="563.91296"
           ry="9.1198864" /><path
           style="fill:#ffffff;stroke:#ffffff;stroke-width:1.29686"
           d="m 2415.7641,563.83589 0.024,18.40649"
           id="path3006-0-0-7" /><path
           style="fill:#ffffff;stroke:#ffffff;stroke-width:0.881427"
           d="m 9133.0823,2181.1868 c -10e-5,-10.4496 -0.051,-25.9113 -0.1126,-34.3594 l -0.1124,-15.3602 h 38.8348 c 26.0371,0 39.3074,0.059 40.269,0.1773 8.9343,1.1044 17.0533,5.5438 22.6246,12.3711 10.0636,12.3321 10.3518,29.9652 0.6975,42.6685 -4.7508,6.2511 -12.0764,10.9451 -19.7409,12.6493 -3.9116,0.8697 -3.0248,0.8526 -44.1642,0.8526 h -38.2957 z"
           id="path3131-8-4-9"
           transform="scale(0.26458333)" /></g><g
         id="g3136-2-6-0"
         inkscape:label="pill"
         transform="matrix(0.41541679,0,0,0.44287285,1421.28,304.62157)"><rect
           style="fill:#ff0000;stroke:none;stroke-width:1.37784"
           id="rect2754-50-9-2"
           width="60.799244"
           height="18.239773"
           x="2384.5972"
           y="563.91296"
           ry="9.1198864" /><path
           style="fill:#ffffff;stroke:#ffffff;stroke-width:1.29686"
           d="m 2415.7641,563.83589 0.024,18.40649"
           id="path3006-6-2-9" /><path
           style="fill:#ffffff;stroke:#ffffff;stroke-width:0.881427"
           d="m 9133.0823,2181.1868 c -10e-5,-10.4496 -0.051,-25.9113 -0.1126,-34.3594 l -0.1124,-15.3602 h 38.8348 c 26.0371,0 39.3074,0.059 40.269,0.1773 8.9343,1.1044 17.0533,5.5438 22.6246,12.3711 10.0636,12.3321 10.3518,29.9652 0.6975,42.6685 -4.7508,6.2511 -12.0764,10.9451 -19.7409,12.6493 -3.9116,0.8697 -3.0248,0.8526 -44.1642,0.8526 h -38.2957 z"
           id="path3131-9-6-9"
           transform="scale(0.26458333)" /></g><g
         id="g3136-15-0-6"
         inkscape:label="pill"
         transform="matrix(0.41541679,0,0,0.44287285,1421.32,317.83034)"><rect
           style="fill:#ff0000;stroke:none;stroke-width:1.37784"
           id="rect2754-0-4-2"
           width="60.799244"
           height="18.239773"
           x="2384.5972"
           y="563.91296"
           ry="9.1198864" /><path
           style="fill:#ffffff;stroke:#ffffff;stroke-width:1.29686"
           d="m 2415.7641,563.83589 0.024,18.40649"
           id="path3006-02-0-4" /><path
           style="fill:#ffffff;stroke:#ffffff;stroke-width:0.881427"
           d="m 9133.0823,2181.1868 c -10e-5,-10.4496 -0.051,-25.9113 -0.1126,-34.3594 l -0.1124,-15.3602 h 38.8348 c 26.0371,0 39.3074,0.059 40.269,0.1773 8.9343,1.1044 17.0533,5.5438 22.6246,12.3711 10.0636,12.3321 10.3518,29.9652 0.6975,42.6685 -4.7508,6.2511 -12.0764,10.9451 -19.7409,12.6493 -3.9116,0.8697 -3.0248,0.8526 -44.1642,0.8526 h -38.2957 z"
           id="path3131-1-2-9"
           transform="scale(0.26458333)" /></g><g
         id="g3136-7-8-8"
         inkscape:label="pill"
         transform="matrix(0.41541679,0,0,0.44287285,1421.389,331.088)"><rect
           style="fill:#ff0000;stroke:none;stroke-width:1.37784"
           id="rect2754-6-4-7"
           width="60.799244"
           height="18.239773"
           x="2384.5972"
           y="563.91296"
           ry="9.1198864" /><path
           style="fill:#ffffff;stroke:#ffffff;stroke-width:1.29686"
           d="m 2415.7641,563.83589 0.024,18.40649"
           id="path3006-7-2-7" /><path
           style="fill:#ffffff;stroke:#ffffff;stroke-width:0.881427"
           d="m 9133.0823,2181.1868 c -10e-5,-10.4496 -0.051,-25.9113 -0.1126,-34.3594 l -0.1124,-15.3602 h 38.8348 c 26.0371,0 39.3074,0.059 40.269,0.1773 8.9343,1.1044 17.0533,5.5438 22.6246,12.3711 10.0636,12.3321 10.3518,29.9652 0.6975,42.6685 -4.7508,6.2511 -12.0764,10.9451 -19.7409,12.6493 -3.9116,0.8697 -3.0248,0.8526 -44.1642,0.8526 h -38.2957 z"
           id="path3131-2-2-8"
           transform="scale(0.26458333)" /></g><g
         id="g3136-4-3-6"
         inkscape:label="pill"
         transform="matrix(0.41541679,0,0,0.44287285,1421.3908,344.13901)"><rect
           style="fill:#ff0000;stroke:none;stroke-width:1.37784"
           id="rect2754-34-1-7"
           width="60.799244"
           height="18.239773"
           x="2384.5972"
           y="563.91296"
           ry="9.1198864" /><path
           style="fill:#ffffff;stroke:#ffffff;stroke-width:1.29686"
           d="m 2415.7641,563.83589 0.024,18.40649"
           id="path3006-2-2-4" /><path
           style="fill:#ffffff;stroke:#ffffff;stroke-width:0.881427"
           d="m 9133.0823,2181.1868 c -10e-5,-10.4496 -0.051,-25.9113 -0.1126,-34.3594 l -0.1124,-15.3602 h 38.8348 c 26.0371,0 39.3074,0.059 40.269,0.1773 8.9343,1.1044 17.0533,5.5438 22.6246,12.3711 10.0636,12.3321 10.3518,29.9652 0.6975,42.6685 -4.7508,6.2511 -12.0764,10.9451 -19.7409,12.6493 -3.9116,0.8697 -3.0248,0.8526 -44.1642,0.8526 h -38.2957 z"
           id="path3131-33-9-8"
           transform="scale(0.26458333)" /></g><g
         id="g3136-6-6-7"
         inkscape:label="pill"
         transform="matrix(0.41541679,0,0,0.44287285,1421.358,357.24758)"><rect
           style="fill:#ff0000;stroke:none;stroke-width:1.37784"
           id="rect2754-8-0-7"
           width="60.799244"
           height="18.239773"
           x="2384.5972"
           y="563.91296"
           ry="9.1198864" /><path
           style="fill:#ffffff;stroke:#ffffff;stroke-width:1.29686"
           d="m 2415.7641,563.83589 0.024,18.40649"
           id="path3006-46-0-2" /><path
           style="fill:#ffffff;stroke:#ffffff;stroke-width:0.881427"
           d="m 9133.0823,2181.1868 c -10e-5,-10.4496 -0.051,-25.9113 -0.1126,-34.3594 l -0.1124,-15.3602 h 38.8348 c 26.0371,0 39.3074,0.059 40.269,0.1773 8.9343,1.1044 17.0533,5.5438 22.6246,12.3711 10.0636,12.3321 10.3518,29.9652 0.6975,42.6685 -4.7508,6.2511 -12.0764,10.9451 -19.7409,12.6493 -3.9116,0.8697 -3.0248,0.8526 -44.1642,0.8526 h -38.2957 z"
           id="path3131-31-1-3"
           transform="scale(0.26458333)" /></g><g
         id="g3136-0-8-1"
         inkscape:label="pill"
         transform="matrix(0.41541679,0,0,0.44287285,1421.3736,385.45731)"><rect
           style="fill:#ff0000;stroke:none;stroke-width:1.37784"
           id="rect2754-7-0-1"
           width="60.799244"
           height="18.239773"
           x="2384.5972"
           y="563.91296"
           ry="9.1198864" /><path
           style="fill:#ffffff;stroke:#ffffff;stroke-width:1.29686"
           d="m 2415.7641,563.83589 0.024,18.40649"
           id="path3006-44-3-9" /><path
           style="fill:#ffffff;stroke:#ffffff;stroke-width:0.881427"
           d="m 9133.0823,2181.1868 c -10e-5,-10.4496 -0.051,-25.9113 -0.1126,-34.3594 l -0.1124,-15.3602 h 38.8348 c 26.0371,0 39.3074,0.059 40.269,0.1773 8.9343,1.1044 17.0533,5.5438 22.6246,12.3711 10.0636,12.3321 10.3518,29.9652 0.6975,42.6685 -4.7508,6.2511 -12.0764,10.9451 -19.7409,12.6493 -3.9116,0.8697 -3.0248,0.8526 -44.1642,0.8526 h -38.2957 z"
           id="path3131-6-7-0"
           transform="scale(0.26458333)" /></g><g
         id="g3136-95-0-4"
         inkscape:label="pill"
         transform="matrix(0.41541679,0,0,0.44287285,1421.369,370.85506)"><rect
           style="fill:#ff0000;stroke:none;stroke-width:1.37784"
           id="rect2754-86-8-1"
           width="60.799244"
           height="18.239773"
           x="2384.5972"
           y="563.91296"
           ry="9.1198864" /><path
           style="fill:#ffffff;stroke:#ffffff;stroke-width:1.29686"
           d="m 2415.7641,563.83589 0.024,18.40649"
           id="path3006-21-4-1" /><path
           style="fill:#ffffff;stroke:#ffffff;stroke-width:0.881427"
           d="m 9133.0823,2181.1868 c -10e-5,-10.4496 -0.051,-25.9113 -0.1126,-34.3594 l -0.1124,-15.3602 h 38.8348 c 26.0371,0 39.3074,0.059 40.269,0.1773 8.9343,1.1044 17.0533,5.5438 22.6246,12.3711 10.0636,12.3321 10.3518,29.9652 0.6975,42.6685 -4.7508,6.2511 -12.0764,10.9451 -19.7409,12.6493 -3.9116,0.8697 -3.0248,0.8526 -44.1642,0.8526 h -38.2957 z"
           id="path3131-5-0-4"
           transform="scale(0.26458333)" /></g><g
         id="g3136-3-7-5"
         inkscape:label="pill"
         transform="matrix(0.41541679,0,0,0.44287285,1386.4189,317.83503)"><rect
           style="fill:#ff0000;stroke:none;stroke-width:1.37784"
           id="rect2754-06-9-3"
           width="60.799244"
           height="18.239773"
           x="2384.5972"
           y="563.91296"
           ry="9.1198864" /><path
           style="fill:#ffffff;stroke:#ffffff;stroke-width:1.29686"
           d="m 2415.7641,563.83589 0.024,18.40649"
           id="path3006-20-4-4" /><path
           style="fill:#ffffff;stroke:#ffffff;stroke-width:0.881427"
           d="m 9133.0823,2181.1868 c -10e-5,-10.4496 -0.051,-25.9113 -0.1126,-34.3594 l -0.1124,-15.3602 h 38.8348 c 26.0371,0 39.3074,0.059 40.269,0.1773 8.9343,1.1044 17.0533,5.5438 22.6246,12.3711 10.0636,12.3321 10.3518,29.9652 0.6975,42.6685 -4.7508,6.2511 -12.0764,10.9451 -19.7409,12.6493 -3.9116,0.8697 -3.0248,0.8526 -44.1642,0.8526 h -38.2957 z"
           id="path3131-0-6-6"
           transform="scale(0.26458333)" /></g><g
         id="g3136-74-4-7"
         inkscape:label="pill"
         transform="matrix(0.41541679,0,0,0.44287285,1386.4104,344.19697)"><rect
           style="fill:#ff0000;stroke:none;stroke-width:1.37784"
           id="rect2754-58-6-8"
           width="60.799244"
           height="18.239773"
           x="2384.5972"
           y="563.91296"
           ry="9.1198864" /><path
           style="fill:#ffffff;stroke:#ffffff;stroke-width:1.29686"
           d="m 2415.7641,563.83589 0.024,18.40649"
           id="path3006-29-9-4" /><path
           style="fill:#ffffff;stroke:#ffffff;stroke-width:0.881427"
           d="m 9133.0823,2181.1868 c -10e-5,-10.4496 -0.051,-25.9113 -0.1126,-34.3594 l -0.1124,-15.3602 h 38.8348 c 26.0371,0 39.3074,0.059 40.269,0.1773 8.9343,1.1044 17.0533,5.5438 22.6246,12.3711 10.0636,12.3321 10.3518,29.9652 0.6975,42.6685 -4.7508,6.2511 -12.0764,10.9451 -19.7409,12.6493 -3.9116,0.8697 -3.0248,0.8526 -44.1642,0.8526 h -38.2957 z"
           id="path3131-11-7-1"
           transform="scale(0.26458333)" /></g><g
         id="g3136-26-4-1"
         inkscape:label="pill"
         transform="matrix(0.41541679,0,0,0.44287285,1386.4417,357.25552)"><rect
           style="fill:#ff0000;stroke:none;stroke-width:1.37784"
           id="rect2754-64-9-8"
           width="60.799244"
           height="18.239773"
           x="2384.5972"
           y="563.91296"
           ry="9.1198864" /><path
           style="fill:#ffffff;stroke:#ffffff;stroke-width:1.29686"
           d="m 2415.7641,563.83589 0.024,18.40649"
           id="path3006-65-7-4" /><path
           style="fill:#ffffff;stroke:#ffffff;stroke-width:0.881427"
           d="m 9133.0823,2181.1868 c -10e-5,-10.4496 -0.051,-25.9113 -0.1126,-34.3594 l -0.1124,-15.3602 h 38.8348 c 26.0371,0 39.3074,0.059 40.269,0.1773 8.9343,1.1044 17.0533,5.5438 22.6246,12.3711 10.0636,12.3321 10.3518,29.9652 0.6975,42.6685 -4.7508,6.2511 -12.0764,10.9451 -19.7409,12.6493 -3.9116,0.8697 -3.0248,0.8526 -44.1642,0.8526 h -38.2957 z"
           id="path3131-4-0-9"
           transform="scale(0.26458333)" /></g><g
         id="g3136-16-0-9"
         inkscape:label="pill"
         transform="matrix(0.41541679,0,0,0.44287285,1386.4207,385.45895)"><rect
           style="fill:#ff0000;stroke:none;stroke-width:1.37784"
           id="rect2754-1-1-6"
           width="60.799244"
           height="18.239773"
           x="2384.5972"
           y="563.91296"
           ry="9.1198864" /><path
           style="fill:#ffffff;stroke:#ffffff;stroke-width:1.29686"
           d="m 2415.7641,563.83589 0.024,18.40649"
           id="path3006-468-8-9" /><path
           style="fill:#ffffff;stroke:#ffffff;stroke-width:0.881427"
           d="m 9133.0823,2181.1868 c -10e-5,-10.4496 -0.051,-25.9113 -0.1126,-34.3594 l -0.1124,-15.3602 h 38.8348 c 26.0371,0 39.3074,0.059 40.269,0.1773 8.9343,1.1044 17.0533,5.5438 22.6246,12.3711 10.0636,12.3321 10.3518,29.9652 0.6975,42.6685 -4.7508,6.2511 -12.0764,10.9451 -19.7409,12.6493 -3.9116,0.8697 -3.0248,0.8526 -44.1642,0.8526 h -38.2957 z"
           id="path3131-318-3-1"
           transform="scale(0.26458333)" /></g><g
         id="g3136-47-7-1"
         inkscape:label="pill"
         transform="matrix(0.41541679,0,0,0.44287285,1386.4239,370.87404)"><rect
           style="fill:#ff0000;stroke:none;stroke-width:1.37784"
           id="rect2754-55-8-2"
           width="60.799244"
           height="18.239773"
           x="2384.5972"
           y="563.91296"
           ry="9.1198864" /><path
           style="fill:#ffffff;stroke:#ffffff;stroke-width:1.29686"
           d="m 2415.7641,563.83589 0.024,18.40649"
           id="path3006-45-1-8" /><path
           style="fill:#ffffff;stroke:#ffffff;stroke-width:0.881427"
           d="m 9133.0823,2181.1868 c -10e-5,-10.4496 -0.051,-25.9113 -0.1126,-34.3594 l -0.1124,-15.3602 h 38.8348 c 26.0371,0 39.3074,0.059 40.269,0.1773 8.9343,1.1044 17.0533,5.5438 22.6246,12.3711 10.0636,12.3321 10.3518,29.9652 0.6975,42.6685 -4.7508,6.2511 -12.0764,10.9451 -19.7409,12.6493 -3.9116,0.8697 -3.0248,0.8526 -44.1642,0.8526 h -38.2957 z"
           id="path3131-14-3-8"
           transform="scale(0.26458333)" /></g><g
         id="g3136-22-7-5"
         inkscape:label="pill"
         transform="matrix(0.41541679,0,0,0.44287285,1386.4015,331.28732)"><rect
           style="fill:#ff0000;stroke:none;stroke-width:1.37784"
           id="rect2754-9-3-4"
           width="60.799244"
           height="18.239773"
           x="2384.5972"
           y="563.91296"
           ry="9.1198864" /><path
           style="fill:#ffffff;stroke:#ffffff;stroke-width:1.29686"
           d="m 2415.7641,563.83589 0.024,18.40649"
           id="path3006-5-9-6" /><path
           style="fill:#ffffff;stroke:#ffffff;stroke-width:0.881427"
           d="m 9133.0823,2181.1868 c -10e-5,-10.4496 -0.051,-25.9113 -0.1126,-34.3594 l -0.1124,-15.3602 h 38.8348 c 26.0371,0 39.3074,0.059 40.269,0.1773 8.9343,1.1044 17.0533,5.5438 22.6246,12.3711 10.0636,12.3321 10.3518,29.9652 0.6975,42.6685 -4.7508,6.2511 -12.0764,10.9451 -19.7409,12.6493 -3.9116,0.8697 -3.0248,0.8526 -44.1642,0.8526 h -38.2957 z"
           id="path3131-95-5-1"
           transform="scale(0.26458333)" /></g></g><ellipse
       style="fill:none;stroke:#ff0000;stroke-width:9.88212"
       id="path19115"
       cx="273.04999"
       cy="2818.8708"
       rx="29.830729"
       ry="30.095312" /><rect
       style="fill:none;stroke:none;stroke-width:1.78462"
       id="rect19477"
       width="107.94999"
       height="101.33542"
       x="156.8979"
       y="2837.127"
       ry="1.3787769"
       inkscape:export-filename="insu-learn\public\images\medicamentCrossed.svg"
       inkscape:export-xdpi="96"
       inkscape:export-ydpi="96" /></g></svg>
