<?xml version="1.0" encoding="UTF-8" standalone="no"?>
<!-- Created with Inkscape (http://www.inkscape.org/) -->

<svg
   width="259.91589mm"
   height="280.65015mm"
   viewBox="0 0 259.91589 280.65015"
   version="1.1"
   id="svg5"
   inkscape:export-filename="girly.svg"
   inkscape:export-xdpi="96"
   inkscape:export-ydpi="96"
   inkscape:version="1.2.2 (732a01da63, 2022-12-09)"
   sodipodi:docname="prototype2.svg"
   xml:space="preserve"
   xmlns:inkscape="http://www.inkscape.org/namespaces/inkscape"
   xmlns:sodipodi="http://sodipodi.sourceforge.net/DTD/sodipodi-0.dtd"
   xmlns="http://www.w3.org/2000/svg"
   xmlns:svg="http://www.w3.org/2000/svg"><sodipodi:namedview
     id="namedview7"
     pagecolor="#ffffff"
     bordercolor="#000000"
     borderopacity="0.25"
     inkscape:showpageshadow="2"
     inkscape:pageopacity="0.0"
     inkscape:pagecheckerboard="0"
     inkscape:deskcolor="#d1d1d1"
     inkscape:document-units="mm"
     showgrid="false"
     inkscape:zoom="0.1767767"
     inkscape:cx="8720.0408"
     inkscape:cy="5673.8248"
     inkscape:window-width="1680"
     inkscape:window-height="979"
     inkscape:window-x="99"
     inkscape:window-y="-8"
     inkscape:window-maximized="1"
     inkscape:current-layer="layer1"
     showguides="true" /><defs
     id="defs2" /><g
     inkscape:label="Layer 1"
     inkscape:groupmode="layer"
     id="layer1"
     transform="translate(-1613.479,-1091.716)"><g
       id="g27025"
       inkscape:label="pizza"
       inkscape:export-filename="insu-learn\public\images\pizza.svg"
       inkscape:export-xdpi="96"
       inkscape:export-ydpi="96"
       transform="matrix(0.99949691,0,0,1.0951552,0.87805222,-130.56399)"><path
         style="fill:#fff6d5;stroke:#fff6d5;stroke-width:33.1973"
         d="m 6593.2461,5167.8899 c -1.6276,-1.3612 -97.1781,-175.221 -212.3345,-386.3552 l -209.3751,-383.8803 5.23,-7.5937 c 10.2063,-14.8192 26.1965,-25.2265 44.1118,-28.7105 13.7556,-2.6751 37.3036,-0.9654 56.8157,4.1251 19.852,5.1792 31.6293,9.3152 77.0746,27.0677 56.271,21.9813 73.8125,27.178 99.821,29.5726 26.2587,2.4177 57.175,-1.2034 91.0979,-10.6697 7.0003,-1.9535 28.0014,-8.6281 46.669,-14.8325 69.4083,-23.0685 88.2586,-27.2555 122.3295,-27.1718 40.3568,0.099 70.4096,10.0191 128.6934,42.4794 58.9479,32.8301 85.3178,42.2079 123.3902,43.8803 9.9171,0.4356 18.0312,1.0149 18.0312,1.2872 0,1.719 -379.9916,707.5295 -382.2979,710.0943 -3.4432,3.8292 -5.3495,3.9748 -9.2568,0.7071 z"
         id="path26536"
         transform="scale(0.26458333)" /><path
         style="fill:#d38d5f;stroke:#d38d5f;stroke-width:33.1973"
         d="m 6947.4614,4428.459 c -24.676,-4.4562 -42.6122,-12.0327 -89.6335,-37.8625 -67.2308,-36.9314 -97.4576,-46.7286 -143.849,-46.6248 -36.6589,0.082 -59.8065,5.144 -131.5219,28.7617 -62.5575,20.6018 -79.5663,24.3409 -111.0157,24.4053 -29.682,0.061 -46.4097,-4.4852 -114.5513,-31.1309 -63.9931,-25.0235 -88.3428,-31.4631 -118.794,-31.4167 -30.7869,0.047 -53.0238,8.9878 -72.8447,29.289 -4.2633,4.3667 -10.4664,14.0629 -10.7274,13.735 -0.2611,-0.328 -25.2736,-55.5657 -33.5724,-70.8553 12.4485,-5.7876 12.4218,-6.5246 31.9762,-11.9827 117.0168,-34.0891 210.098,-49.5665 334.0699,-58.0798 33.8643,-2.3255 152.3824,-2.3176 184.5549,0.012 125.5308,9.0908 231.7319,27.1427 347.3579,59.0433 46.6235,12.8632 45.0863,12.4038 45.0863,13.4764 0,0.5227 -14.3044,27.5972 -31.7876,60.1655 -24.6841,45.9823 -32.5059,59.4205 -35.0018,60.1347 -5.8679,1.679 -38.3965,0.979 -49.7459,-1.0705 z"
         id="path26326"
         transform="scale(0.26458333)"
         sodipodi:nodetypes="sssssssssccssssssss" /><path
         style="fill:none;stroke:none;stroke-width:2.78637"
         d="m 1741.0206,1368.7141 -123.1778,-225.7586 c 0,0 -1.2487,-6.8145 1.2307,-7.5724 86.6505,-26.4887 170.53,-23.1488 253.3099,2.116 1.5191,1.2394 0.2038,2.4787 -0.021,3.7181 l -122.2613,227.5222 c -2.3609,2.4059 -4.7678,4.6455 -9.0809,-0.025 z"
         id="path24899"
         sodipodi:nodetypes="ccsccccc" /><path
         style="fill:none;stroke:none;stroke-width:33.1973"
         d="m 6947.4614,4428.459 c -24.676,-4.4562 -42.6122,-12.0327 -89.6335,-37.8625 -67.2308,-36.9314 -97.4576,-46.7286 -143.849,-46.6248 -36.6589,0.082 -59.8065,5.144 -131.5219,28.7617 -62.5575,20.6018 -79.5663,24.3409 -111.0157,24.4053 -29.682,0.061 -46.4097,-4.4852 -114.5513,-31.1309 -63.9931,-25.0235 -88.3428,-31.4631 -118.794,-31.4167 -30.7869,0.047 -53.0238,8.9878 -72.8447,29.289 -4.2633,4.3667 -7.9651,7.6711 -8.2261,7.3432 -0.2611,-0.328 -7.2646,-13.106 -15.5634,-28.3956 -12.8922,-23.7527 -15.0886,-28.7361 -15.0886,-34.2348 v -6.4355 l 9.5459,-2.8147 c 116.8847,-34.4644 227.1066,-54.1321 351.0785,-62.6454 33.8643,-2.3255 152.3824,-2.3176 184.5549,0.012 125.5308,9.0908 231.7319,27.1427 347.3579,59.0433 46.6235,12.8632 45.0863,12.4038 45.0863,13.4764 0,0.5227 -14.3044,27.5972 -31.7876,60.1655 -24.6841,45.9823 -32.5059,59.4205 -35.0018,60.1347 -5.8679,1.679 -38.3965,0.979 -49.7459,-1.0705 z"
         id="path26251"
         transform="scale(0.26458333)" /><ellipse
         style="fill:#a02c2c;stroke:#fff6d5;stroke-width:6.5927"
         id="path26850"
         cx="1704.1907"
         cy="1206.7218"
         rx="22.820971"
         ry="23.382236" /><ellipse
         style="fill:#a02c2c;stroke:#fff6d5;stroke-width:6.21083"
         id="path26904"
         cx="1781.8324"
         cy="1240.9591"
         rx="24.321527"
         ry="23.011906" /><ellipse
         style="fill:#a02c2c;stroke:#fff6d5;stroke-width:6.21083"
         id="path26906"
         cx="1740.2988"
         cy="1293.7181"
         rx="24.321527"
         ry="23.011906" /><ellipse
         style="fill:#a02c2c;stroke:none;stroke-width:2.78638"
         id="path27014"
         cx="1773.6006"
         cy="1162.382"
         rx="20.205576"
         ry="18.895956" /><rect
         style="opacity:1;fill:#d38d5f;stroke:none;stroke-width:0.651264"
         id="rect62335"
         width="6.8020258"
         height="3.4333363"
         x="851.31708"
         y="2201.5896"
         ry="0"
         transform="matrix(0.55185991,-0.83393683,0.52549804,0.85079481,0,0)" /><rect
         style="fill:#d38d5f;stroke:none;stroke-width:0.651311"
         id="rect62335-5"
         width="6.8195038"
         height="3.4250326"
         x="2188.9683"
         y="722.60925"
         ry="0"
         transform="matrix(0.57760947,0.81631323,0.49842679,-0.86693179,0,0)" /><rect
         style="fill:#d38d5f;stroke:none;stroke-width:1.67765"
         id="rect62335-7-6"
         width="16.270899"
         height="9.5242891"
         x="1388.2561"
         y="2665.9431"
         ry="0"
         transform="matrix(0.48110222,-0.8766645,0.44221762,0.89690779,0,0)" /><rect
         style="fill:#d38d5f;stroke:none;stroke-width:1.84765"
         id="rect62335-7-6-3"
         width="19.785446"
         height="9.5003548"
         x="-1889.1431"
         y="450.83539"
         ry="0"
         transform="matrix(-0.92098339,-0.38960185,0.24163575,0.97036703,0,0)" /></g></g></svg>
